<?xml version="1.0" encoding="utf-8"?>
<!-- Generator: Adobe Illustrator 27.5.0, SVG Export Plug-In . SVG Version: 6.00 Build 0)  -->
<svg version="1.1" xmlns="http://www.w3.org/2000/svg" xmlns:xlink="http://www.w3.org/1999/xlink" x="0px" y="0px"
	 viewBox="0 0 3710 3710" style="enable-background:new 0 0 3710 3710;" xml:space="preserve">
<g id="Background">
	<g>
		<g>
			<rect style="fill:#FFFFFF;" width="3710" height="3710"/>
		</g>
	</g>
</g>
<g id="Illustration">
	<g>
		<path style="fill:#F4F7FA;" d="M2592.844,617.229c93.927,134.463-16.205,352.46,123.168,453.587
			c135.668,98.44,302.333-62.916,430.192,21.821c189.672,125.701,155.034,700.887-122.276,1058.262
			c-83.396,107.474-153.08,149.292-183.941,270.84c-66.27,260.996,166.636,416.253,122.314,545.338
			c-99.796,290.651-1634.594,534.541-2250.424-338.961c-287.617-407.962-330.651-997.063-73.674-1444.487
			C1102.557,375.138,2382.086,315.519,2592.844,617.229z"/>
		<g>
			<path style="fill:#AABBCC;" d="M3028.003,1242.009c36.343,18.453,82.003,1.51,101.985-37.844
				c19.98-39.353,6.714-86.214-29.629-104.667c-1.884-0.956-3.804-1.76-5.733-2.528c6.753-21.776,11.844-43.722,15.258-65.676
				c2.083-0.007,4.174-0.041,6.298-0.231c41.465-3.696,74.374-41.798,73.506-85.106c-0.868-43.308-35.186-75.419-76.652-71.723
				c-2.167,0.195-4.296,0.536-6.412,0.912c-4.332-21.462-10.266-42.427-17.752-62.718c1.907-1.116,3.805-2.27,5.658-3.569
				c35.476-24.853,46.818-73.908,25.333-109.566c-21.484-35.656-67.66-44.413-103.136-19.56c-1.817,1.275-3.528,2.65-5.218,4.046
				c-14.012-15.489-29.38-29.844-46.007-42.945c1.169-1.917,2.313-3.859,3.348-5.897c19.981-39.353,46.09-82.341,9.462-100.223
				c-84.734-41.364-121.095-5.954-141.075,33.4c-1.035,2.038-1.927,4.108-2.785,6.183c-20.389-5.693-41.046-9.629-61.819-11.801
				c0.129-2.189,0.23-4.38,0.186-6.6c-0.868-43.306,11.981-66.742-29.641-67.552c-90.764-1.764-121.387,37.631-120.518,80.936
				c0.044,2.264,0.234,4.477,0.458,6.675c-20.8,5.929-41.227,13.509-61.11,22.677c-0.945-1.931-1.926-3.851-3.048-5.716
				c-21.484-35.657-67.66-44.415-103.137-19.559c-35.476,24.856-46.818,73.91-25.333,109.566c1.101,1.827,2.306,3.535,3.531,5.221
				c-15.711,15.711-30.423,32.771-44.02,51.074c-1.758-1.103-3.54-2.181-5.423-3.136c-36.344-18.454-82.004-1.51-101.986,37.844
				c-19.98,39.352-6.714,86.214,29.629,104.667c1.884,0.956,3.806,1.759,5.733,2.529c-6.753,21.775-11.844,43.721-15.258,65.676
				c-2.083,0.006-4.174,0.04-6.296,0.228c-41.466,3.698-74.376,41.8-73.508,85.109c0.868,43.307,35.188,75.417,76.654,71.721
				c2.165-0.192,4.294-0.533,6.411-0.909c4.332,21.462,10.265,42.427,17.752,62.718c-1.907,1.115-3.805,2.269-5.658,3.568
				c-35.475,24.853-46.818,73.908-25.333,109.566c21.484,35.657,92.612,52.222,128.088,27.369
				c1.818-1.274-21.424-10.458-19.735-11.854c14.014,15.489,29.38,29.844,46.008,42.945c-1.169,1.916-2.314,3.859-3.348,5.897
				c-19.981,39.353-6.715,86.215,29.629,104.667c36.344,18.453,82.004,1.51,101.984-37.844c1.035-2.038,1.927-4.109,2.785-6.183
				c20.388,5.693,41.045,9.629,61.819,11.801c-0.129,2.187-0.23,4.38-0.185,6.6c0.868,43.306,35.186,75.418,76.651,71.722
				c41.465-3.697,74.376-41.801,73.507-85.107c-0.044-2.263-0.234-4.476-0.459-6.674c20.8-5.929,41.228-13.509,61.11-22.678
				c0.944,1.932,1.926,3.852,3.049,5.714c21.484,35.658,67.658,44.418,103.135,19.561c35.476-24.855,46.818-73.908,25.334-109.567
				c-1.102-1.825-2.308-3.533-3.532-5.219c15.71-15.712,30.424-32.772,44.019-51.074
				C3024.337,1239.976,3026.12,1241.052,3028.003,1242.009z M2574.938,1247.757c-131.957-66.998-180.122-237.138-107.576-380.021
				c72.545-142.885,238.326-204.401,370.284-137.403c131.957,66.999,180.122,237.139,107.576,380.023
				C2872.677,1253.239,2706.896,1314.756,2574.938,1247.757z"/>
			<path style="fill:#AABBCC;" d="M3116.182,1031.064c41.465-3.697,74.374-41.801,73.506-85.108
				c-0.868-43.307-35.186-75.421-76.652-71.723c-2.167,0.193-4.296,0.536-6.412,0.911c-4.331-21.462-10.266-42.426-17.752-62.716
				c1.907-1.115,3.805-2.27,5.658-3.569c35.476-24.853,79.366-84.907,54.336-118.171c-47.502-63.135-96.663-35.807-132.139-10.954
				c-1.817,1.275-3.528,2.648-5.218,4.045c-14.012-15.489-29.38-29.842-46.007-42.945c1.169-1.917,2.313-3.858,3.348-5.896
				c10.875-21.417,11.835-45.031,4.653-65.106c-34.266,60.308-68.069,120.87-101.268,181.762
				c105.272,77.14,138.788,229.16,72.986,358.764c-55.762,109.826-166.603,171.495-274.833,163.767
				c-4.828,12.521-9.568,25.109-14.738,37.509c-14.03,33.649-29.968,66.607-45.926,99.522c10.035,1.892,20.117,3.382,30.225,4.44
				c-0.13,2.189-0.231,4.381-0.187,6.6c0.868,43.308,27.161,80.103,102.311,76.117c41.571-2.205,48.716-46.195,47.847-89.502
				c-0.044-2.262-0.234-4.475-0.458-6.673c20.799-5.929,41.227-13.511,61.109-22.678c0.944,1.932,1.926,3.852,3.049,5.714
				c21.484,35.659,96.016,50.809,131.492,25.954c35.477-24.855,18.46-80.301-3.022-115.96c-1.102-1.826-2.308-3.534-3.532-5.22
				c15.71-15.711,30.424-32.772,44.019-51.073c1.758,1.105,3.541,2.181,5.424,3.135c36.343,18.455,82.003,1.51,101.985-37.844
				c19.98-39.351,6.714-86.214-29.629-104.667c-1.884-0.956-3.804-1.759-5.733-2.527c6.753-21.776,11.844-43.723,15.258-65.675
				C3111.967,1031.287,3114.058,1031.252,3116.182,1031.064z"/>
			<path style="fill:#D8DEE8;" d="M3067.094,1246.454c36.344,18.453,82.004,1.509,101.985-37.844
				c19.98-39.353,6.715-86.214-29.629-104.667c-1.883-0.956-3.805-1.76-5.732-2.528c6.752-21.776,11.844-43.722,15.258-65.676
				c2.083-0.007,4.173-0.041,6.298-0.231c41.465-3.696,74.375-41.799,73.508-85.106c-0.868-43.308-35.186-75.421-76.652-71.723
				c-2.168,0.195-4.296,0.536-6.413,0.912c-4.332-21.462-10.267-42.427-17.754-62.718c1.908-1.116,3.806-2.269,5.659-3.569
				c35.475-24.854,46.818-73.908,25.333-109.566c-21.485-35.657-67.661-44.414-103.135-19.56c-1.819,1.275-3.529,2.65-5.219,4.046
				c-14.012-15.49-29.381-29.845-46.007-42.945c1.169-1.916,2.314-3.859,3.348-5.897c19.98-39.354,6.715-86.214-29.629-104.668
				c-36.345-18.452-82.006-1.508-101.986,37.845c-1.035,2.038-1.927,4.108-2.785,6.183c-20.388-5.693-41.045-9.629-61.819-11.801
				c0.13-2.189,0.231-4.381,0.187-6.6c-0.869-43.306-35.187-75.418-76.653-71.722c-41.465,3.696-74.375,41.8-73.506,85.106
				c0.045,2.264,0.235,4.477,0.459,6.675c-20.799,5.929-41.226,13.509-61.109,22.677c-0.945-1.931-1.926-3.851-3.048-5.716
				c-21.485-35.658-67.661-44.414-103.137-19.559c-35.477,24.856-46.818,73.908-25.332,109.566c1.099,1.827,2.305,3.535,3.53,5.221
				c-15.71,15.712-30.424,32.772-44.019,51.073c-1.759-1.102-3.541-2.18-5.425-3.135c-36.344-18.454-82.004-1.51-101.984,37.844
				c-19.98,39.352-6.715,86.214,29.629,104.667c1.883,0.955,3.805,1.759,5.733,2.528c-6.753,21.776-11.845,43.721-15.258,65.676
				c-2.083,0.005-4.174,0.04-6.298,0.227c-41.465,3.698-74.375,41.801-73.507,85.108c0.868,43.309,35.188,75.418,76.653,71.722
				c2.167-0.192,4.296-0.533,6.412-0.91c4.331,21.461,10.265,42.427,17.753,62.718c-1.908,1.116-3.806,2.268-5.66,3.568
				c-35.474,24.853-46.818,73.908-25.333,109.565c21.485,35.658,67.662,44.414,103.136,19.561c1.818-1.274,3.529-2.649,5.219-4.045
				c14.012,15.489,29.38,29.844,46.006,42.945c-1.169,1.917-2.314,3.859-3.349,5.897c-19.98,39.352-6.715,86.214,29.629,104.667
				c36.345,18.453,82.005,1.509,101.986-37.844c1.035-2.038,1.927-4.109,2.785-6.183c20.388,5.692,41.046,9.629,61.82,11.801
				c-0.13,2.187-0.231,4.38-0.187,6.6c0.87,43.306,35.188,75.417,76.653,71.721c41.465-3.696,74.376-41.8,73.506-85.106
				c-0.045-2.263-0.235-4.476-0.458-6.674c20.8-5.929,41.226-13.509,61.11-22.678c0.945,1.931,1.925,3.852,3.049,5.714
				c21.485,35.658,67.66,44.416,103.135,19.561c35.477-24.856,46.818-73.909,25.334-109.568c-1.1-1.825-2.306-3.533-3.532-5.219
				c15.711-15.712,30.424-32.773,44.019-51.074C3063.428,1244.421,3065.209,1245.498,3067.094,1246.454z M2614.028,1252.202
				c-131.958-66.997-180.121-237.138-107.577-380.023c72.545-142.883,238.328-204.399,370.284-137.402
				c131.958,66.997,180.122,237.139,107.577,380.023C2911.768,1257.684,2745.985,1319.2,2614.028,1252.202z"/>
		</g>
		<g>
			<linearGradient id="SVGID_1_" gradientUnits="userSpaceOnUse" x1="2644.9573" y1="834.6248" x2="477.1672" y2="3442.3677">
				<stop  offset="0" style="stop-color:#444B8C"/>
				<stop  offset="0.9964" style="stop-color:#26264F"/>
			</linearGradient>
			<path style="fill:url(#SVGID_1_);" d="M3000.471,913.223L731.315,806.235c-26.683-1.258-48.367,20.535-48.367,48.679v1975.423
				c0,28.143,21.683,49.712,48.367,48.178l2269.157-130.48c20.865-1.199,37.743-22.279,37.743-47.083V959.916
				C3038.214,935.111,3021.336,914.208,3000.471,913.223z"/>
			<path style="opacity:0.61;fill:#FFFFFF;" d="M734.057,2825.447V859.278l5.981,0.265l2259.524,99.709v1742.767l-5.504,0.298
				L734.057,2825.447z M745.593,873.555v1937.491l2242.432-122.171V972.509L745.593,873.555z"/>
			<g style="opacity:0.61;">
				<g>
					<path style="fill:#FFFFFF;" d="M907.012,2575.912c-12.233,0-23.947-5.242-32.664-15.106
						c-10.669-12.075-14.704-28.568-11.072-45.249c53.093-243.79,187.837-345.781,263.432-384.877l4.59,12.62
						c-73.666,38.1-204.993,137.575-256.855,375.718c-2.546,11.688,0.315,23.282,7.847,31.808
						c9.407,10.646,23.606,14.109,37.059,9.028l190.047-71.707c28.562-10.777,52.079-33.901,64.522-63.439l35.159-83.467
						l10.308,6.175l-35.159,83.466c-13.831,32.837-39.838,58.49-71.35,70.382l-190.047,71.707
						C917.594,2574.948,912.254,2575.912,907.012,2575.912z"/>
					<path style="fill:#FFFFFF;" d="M1915.478,2533.275c-3.737,0-7.495-0.556-11.182-1.704l-174.743-54.301
						c-29.887-9.286-54.6-32.509-67.805-63.716l-35.561-84.042l10.299-6.199l35.561,84.044
						c11.713,27.679,33.734,48.309,60.416,56.601l174.743,54.301c11.294,3.507,23.477-0.411,31.8-10.232
						c7.494-8.845,10.418-20.48,8.023-31.921c-46.519-222.285-167.2-311.401-234.996-344.737l4.398-12.717
						c34.107,16.771,84.565,48.861,131.253,106.497c52.533,64.852,89.723,148.165,110.539,247.626
						c3.355,16.031-0.795,32.864-11.102,45.031C1938.634,2527.821,1927.158,2533.275,1915.478,2533.275z"/>
				</g>
				<path style="fill:#FFFFFF;" d="M1270.578,2492.568c-10.299,0-19.591-5.627-25.019-15.216
					c-5.149-9.095-5.947-20.142-2.186-30.307l33.131-89.903l10.561,5.535l-33.135,89.911c-2.128,5.755-1.693,11.97,1.191,17.064
					c3.387,5.984,9.446,9.461,16.18,9.141l306.758-11.879c6.59-0.253,12.501-4.167,15.812-10.469
					c2.762-5.253,3.189-11.369,1.172-16.775l-33.083-86.09l10.488-5.731l33.109,86.157c3.63,9.729,2.924,20.547-1.911,29.747
					c-5.354,10.187-14.779,16.509-25.212,16.912l-306.758,11.879C1271.307,2492.56,1270.941,2492.568,1270.578,2492.568z"/>
				<path style="fill:#FFFFFF;" d="M1413.03,2382.553c-64.696,0.003-130.641-12.207-197.47-36.639
					c-9.141-3.342-16.49-10.429-20.692-19.959c-33.14-75.142-196.743-466.428-163.006-791.002
					c29.059-279.575,251.025-447.384,345.108-506.555c14.878-9.357,26.74-16.116,34.07-20.137
					c7.008-3.845,10.732-5.874,12.996-6.767c0.349-0.18,0.697-0.328,1.129-0.387c1.676-0.464,2.364-0.039,3.579,0.711l-0.045,0.105
					c4.107,1.766,12.22,6.746,30.369,18.944c41.089,27.617,120.909,87.156,193.821,175.613
					c88.866,107.811,140.095,224.385,152.263,346.483c31.073,311.773-122.14,695.943-153.17,769.788
					c-3.866,9.206-10.597,16.407-18.949,20.277C1561.809,2366.039,1488.266,2382.553,1413.03,2382.553z M1425.817,1015.498
					c-29.306,14.954-347.739,186.652-382.506,521.148c-33.314,320.5,128.91,708.401,161.767,782.906
					c2.761,6.258,7.684,10.949,13.865,13.209c142.006,51.917,279.92,47.691,409.912-12.555c5.681-2.633,10.231-7.469,12.815-13.617
					c30.771-73.23,182.713-454.13,152.029-762.003c-32.289-323.976-339.111-512.384-367.648-529.077l-0.116,0.062L1425.817,1015.498
					z"/>
				<path style="fill:#FFFFFF;" d="M1422.788,2014.15c-73.626,0-144.336-33.687-194.478-92.786
					c-45.577-53.718-70.677-123.782-70.677-197.285c0-73.503,25.101-143.528,70.678-197.174
					c50.909-59.918,123.077-93.549,197.863-92.445c70.043,1.095,135.729,31.794,184.957,86.439
					c49.268,54.692,76.401,126.999,76.401,203.603c0,76.605-27.134,148.871-76.405,203.484
					c-49.23,54.569-114.918,85.16-184.962,86.141C1425.042,2014.141,1423.911,2014.15,1422.788,2014.15z M1422.399,1448.189
					c-70.475,0-138.076,32.119-185.985,88.507c-43.364,51.042-67.245,117.588-67.245,187.383c0,69.798,23.883,136.386,67.25,187.5
					c47.991,56.564,115.764,88.81,186.367,88.813c1.085,0,2.158-0.007,3.244-0.023c137.832-1.928,249.966-125.681,249.966-275.867
					c0-150.191-112.137-274.132-249.974-276.285C1424.818,1448.198,1423.602,1448.189,1422.399,1448.189z"/>
				<path style="fill:#FFFFFF;" d="M1424.021,1957.115c-59.165,0-116.011-27.145-156.256-74.699
					c-36.506-43.135-56.612-99.351-56.612-158.292c0-58.944,20.106-115.13,56.614-158.208
					c40.731-48.061,98.55-75.163,158.391-74.432c56.316,0.712,109.163,25.264,148.807,69.134
					c39.719,43.952,61.594,102.14,61.594,163.843c0,61.706-21.876,119.86-61.598,163.749
					c-39.645,43.807-92.494,68.273-148.811,68.893C1425.441,1957.111,1424.731,1957.115,1424.021,1957.115z M1423.71,1505.226
					c-56.037,0-109.798,25.595-147.828,70.468c-34.302,40.475-53.193,93.187-53.193,148.429c0,55.243,18.891,107.987,53.195,148.52
					c38.557,45.557,93.237,71.315,150.16,70.702c109.717-1.208,198.978-99.4,198.978-218.885
					c0-119.492-89.265-217.833-198.986-219.22C1425.263,1505.23,1424.483,1505.226,1423.71,1505.226z"/>
				<polygon style="fill:#FFFFFF;" points="1720.845,1311.357 1121.741,1297.491 1121.964,1283.736 1721.068,1297.602 				"/>
			</g>
			<polygon style="opacity:0.61;fill:#FFFFFF;" points="740.051,2672.677 739.599,2658.931 2993.568,2553.492 2994.02,2567.239 			
				"/>
			<rect x="2102.7" y="2601.779" style="opacity:0.61;fill:#FFFFFF;" width="11.536" height="144.682"/>
			<polygon style="opacity:0.61;fill:#FFFFFF;" points="2107.486,2681.055 2106.995,2667.309 2993.549,2622.356 2994.04,2636.103 
							"/>
			<rect x="2258.625" y="2594.487" style="opacity:0.61;fill:#FFFFFF;" width="11.536" height="71.729"/>
			<rect x="2482.912" y="2583.995" style="opacity:0.61;fill:#FFFFFF;" width="11.536" height="70.847"/>
			<polygon style="opacity:0.61;fill:#FFFFFF;" points="2338.966,1045.517 1426.806,1010.568 1426.955,1005.068 2339.115,1040.017 
							"/>
			<polygon style="opacity:0.61;fill:#FFFFFF;" points="1958.267,2534.42 1958.103,2528.922 2340.09,2512.64 2340.254,2518.137 			
				"/>
			<polygon style="opacity:0.61;fill:#FFFFFF;" points="1720.901,2126.932 1720.822,2121.429 2340.133,2108.778 2340.211,2114.28 
							"/>
			<polygon style="opacity:0.61;fill:#FFFFFF;" points="2340.127,1321.671 1720.816,1307.341 1720.906,1301.838 2340.217,1316.168 
							"/>
			<rect x="2309.071" y="1043.083" style="opacity:0.61;fill:#FFFFFF;" width="4.614" height="1472.158"/>
			<polygon style="opacity:0.61;fill:#FFFFFF;" points="1682.658,2006.731 1681.979,2005.958 1285.974,1556.172 1289.156,1552.187 
				1684.481,2001.201 2109.671,1995.244 2109.725,2000.747 			"/>
			<polygon style="opacity:0.45;fill:#FFFFFF;" points="2897.523,1100.119 2454.442,1084.045 2454.442,1048.554 2897.523,1065.497 
							"/>
			<polygon style="opacity:0.45;fill:#FFFFFF;" points="2897.523,1156.045 2454.442,1141.377 2454.442,1105.886 2897.523,1121.424 
							"/>
			<polygon style="opacity:0.45;fill:#FFFFFF;" points="2897.523,1211.972 2454.442,1198.709 2454.442,1163.218 2897.523,1177.351 
							"/>
			<polygon style="opacity:0.45;fill:#FFFFFF;" points="2897.523,1531.554 2454.442,1526.32 2454.442,1490.829 2897.523,1496.932 
							"/>
			<polygon style="opacity:0.45;fill:#FFFFFF;" points="2897.523,1587.481 2454.442,1583.652 2454.442,1548.161 2897.523,1552.859 
							"/>
			<polygon style="opacity:0.45;fill:#FFFFFF;" points="2897.523,1643.407 2454.442,1640.984 2454.442,1605.492 2897.523,1608.786 
							"/>
			<polygon style="opacity:0.45;fill:#FFFFFF;" points="2897.523,1310.51 2657.941,1304.677 2657.941,1269.585 2897.523,1275.889 
							"/>
			<polygon style="opacity:0.45;fill:#FFFFFF;" points="2897.523,1366.437 2657.941,1361.364 2657.941,1326.272 2897.523,1331.815 
							"/>
			<polygon style="opacity:0.45;fill:#FFFFFF;" points="2897.523,1422.364 2657.941,1418.05 2657.941,1382.958 2897.523,1387.742 
							"/>
			<path style="opacity:0.61;fill:#FFFFFF;" d="M2452.136,2512.003v-780.948l447.694,0.152v761.749L2452.136,2512.003z
				 M2456.75,1736.56v769.741l438.465-18.656v-750.939L2456.75,1736.56z"/>
			<polygon style="opacity:0.61;fill:#FFFFFF;" points="2454.455,1853.952 2454.43,1848.449 2897.51,1845.722 2897.535,1851.224 			
				"/>
			<polygon style="opacity:0.61;fill:#FFFFFF;" points="2454.461,1914.015 2454.425,1908.512 2897.504,1904.311 2897.54,1909.813 
							"/>
			<polygon style="opacity:0.61;fill:#FFFFFF;" points="2454.468,1974.076 2454.418,1968.574 2897.497,1962.901 2897.547,1968.404 
							"/>
			<polygon style="opacity:0.61;fill:#FFFFFF;" points="2454.474,2034.138 2454.411,2028.635 2897.491,2021.491 2897.554,2026.993 
							"/>
			<polygon style="opacity:0.61;fill:#FFFFFF;" points="2454.48,2094.201 2454.406,2088.698 2897.485,2080.081 2897.559,2085.583 
							"/>
			<polygon style="opacity:0.61;fill:#FFFFFF;" points="2454.492,2208.864 2454.393,2203.361 2897.472,2191.935 2897.572,2197.438 
							"/>
			<polygon style="opacity:0.61;fill:#FFFFFF;" points="2454.499,2268.924 2454.387,2263.424 2897.466,2250.525 2897.579,2256.025 
							"/>
			<polygon style="opacity:0.61;fill:#FFFFFF;" points="2454.506,2328.987 2454.38,2323.487 2897.459,2309.116 2897.585,2314.616 
							"/>
			<polygon style="opacity:0.61;fill:#FFFFFF;" points="2454.511,2389.05 2454.374,2383.548 2897.453,2367.705 2897.591,2373.208 
							"/>
			<polygon style="opacity:0.61;fill:#FFFFFF;" points="2454.518,2449.109 2454.367,2443.612 2897.447,2426.297 2897.598,2431.795 
							"/>
			<rect x="2592.971" y="1733.854" style="opacity:0.61;fill:#FFFFFF;" width="4.614" height="770.66"/>
			<polygon style="opacity:0.45;fill:#FFFFFF;" points="2275.257,1770.968 2251.097,1771.01 2251.097,1695.087 2275.257,1695.146 
							"/>
			<polygon style="opacity:0.45;fill:#FFFFFF;" points="2275.257,2366.513 2251.097,2367.342 2251.097,2291.42 2275.257,2290.692 
							"/>
			<polygon style="opacity:0.45;fill:#FFFFFF;" points="2080.169,1962.184 1913.546,1964.191 1913.546,1916.391 2080.169,1914.811 
							"/>
		</g>
		<g>
			<path style="opacity:0.49;fill:#FFFFFF;" d="M2440.575,1676.45l-960.363,1.954c-5.515,0.011-8.053-8.181-3.856-12.443
				l111.351-113.061l-1.018-500.17c-0.041-20.181,14.154-36.183,31.682-35.741l820.91,20.705
				c16.237,0.409,29.554,16.591,29.594,35.959l1.155,567.524C2470.071,1660.624,2456.883,1676.417,2440.575,1676.45z"/>
			<g>
				<g>
					<polygon style="fill:#D8DEE8;" points="1853.01,1135.495 1665.333,1131.641 1665.28,1105.324 1852.956,1109.382 					"/>
					<polygon style="fill:#D8DEE8;" points="1853.116,1187.721 1665.44,1184.275 1665.386,1157.958 1853.063,1161.608 					"/>
					<polygon style="fill:#D8DEE8;" points="1853.283,1269.976 1665.609,1267.173 1665.555,1240.855 1853.23,1243.863 					"/>
					<polygon style="fill:#D8DEE8;" points="1853.39,1322.202 1665.716,1319.807 1665.662,1293.49 1853.336,1296.089 					"/>
					<polygon style="fill:#D8DEE8;" points="2396.477,1540.967 1666.161,1538.237 1666.107,1511.92 2396.425,1515.444 					"/>
					<polygon style="fill:#D8DEE8;" points="2396.581,1592.014 1666.268,1590.871 1666.214,1564.554 2396.529,1566.491 					"/>
					<polygon style="fill:#D8DEE8;" points="1853.557,1404.457 1665.885,1402.705 1665.831,1376.388 1853.504,1378.345 					"/>
					<polygon style="fill:#D8DEE8;" points="1853.663,1456.684 1665.992,1455.34 1665.938,1429.022 1853.61,1430.57 					"/>
				</g>
				<g>
					<polygon style="fill:#D8DEE8;" points="2396.318,1463.221 1923.724,1459.889 1923.014,1110.895 1927.656,1110.995 
						1928.355,1454.512 2396.308,1457.917 					"/>
					<polygon style="fill:#D8DEE8;" points="1989.377,1363.042 1986.077,1359.222 2083.336,1244.453 2178.347,1284.677 
						2270.978,1192.206 2363.76,1249.678 2361.742,1254.376 2271.638,1198.591 2179.337,1290.755 2084.583,1250.666 					"/>
					
						<linearGradient id="SVGID_00000142149408032541435260000017940210103454448256_" gradientUnits="userSpaceOnUse" x1="2082.8411" y1="1076.7137" x2="1827.8245" y2="1870.098" gradientTransform="matrix(1 -0.002 0.002 1 -5.7473 1.8569)">
						<stop  offset="0" style="stop-color:#444B8C"/>
						<stop  offset="0.9964" style="stop-color:#26264F"/>
					</linearGradient>
					<path style="fill:url(#SVGID_00000142149408032541435260000017940210103454448256_);" d="M2003.644,1361.313
						c0.021,10.271-7.086,18.523-15.878,18.431c-8.799-0.092-15.955-8.503-15.976-18.788c-0.021-10.285,7.1-18.536,15.9-18.43
						C1996.482,1342.631,2003.622,1351.042,2003.644,1361.313z"/>
					
						<linearGradient id="SVGID_00000137126742585487413350000008238136483171899278_" gradientUnits="userSpaceOnUse" x1="2135.5894" y1="1099.3219" x2="1881.9232" y2="1888.5049" gradientTransform="matrix(1 -0.002 0.002 1 -5.7473 1.8569)">
						<stop  offset="0" style="stop-color:#444B8C"/>
						<stop  offset="0.9964" style="stop-color:#26264F"/>
					</linearGradient>
					<path style="fill:url(#SVGID_00000137126742585487413350000008238136483171899278_);" d="M2099.748,1247.813
						c0.021,10.229-7.029,18.414-15.751,18.281c-8.728-0.133-15.825-8.544-15.846-18.788s7.043-18.428,15.771-18.281
						C2092.643,1229.172,2099.727,1237.583,2099.748,1247.813z"/>
					
						<linearGradient id="SVGID_00000073712562470581507400000005216716671865907122_" gradientUnits="userSpaceOnUse" x1="2231.0317" y1="1137.6799" x2="1978.351" y2="1923.7976" gradientTransform="matrix(1 -0.002 0.002 1 -5.7473 1.8569)">
						<stop  offset="0" style="stop-color:#444B8C"/>
						<stop  offset="0.9964" style="stop-color:#26264F"/>
					</linearGradient>
					<path style="fill:url(#SVGID_00000073712562470581507400000005216716671865907122_);" d="M2194.506,1287.943
						c0.021,10.189-6.973,18.353-15.625,18.235c-8.659-0.118-15.7-8.484-15.72-18.686c-0.021-10.202,6.986-18.367,15.645-18.235
						C2187.458,1269.388,2194.485,1277.754,2194.506,1287.943z"/>
					
						<linearGradient id="SVGID_00000062901914134876912200000004173712188569765779_" gradientUnits="userSpaceOnUse" x1="2286.5955" y1="1160.9218" x2="2035.1676" y2="1943.1411" gradientTransform="matrix(1 -0.002 0.002 1 -5.7473 1.8569)">
						<stop  offset="0" style="stop-color:#444B8C"/>
						<stop  offset="0.9964" style="stop-color:#26264F"/>
					</linearGradient>
					<path style="fill:url(#SVGID_00000062901914134876912200000004173712188569765779_);" d="M2286.848,1195.684
						c0.021,10.149-6.918,18.254-15.503,18.103c-8.592-0.151-15.577-8.511-15.598-18.674c-0.021-10.162,6.932-18.268,15.523-18.104
						C2279.854,1177.173,2286.827,1185.535,2286.848,1195.684z"/>
					
						<linearGradient id="SVGID_00000181082237394597339520000011010031289378268041_" gradientUnits="userSpaceOnUse" x1="2383.6748" y1="1199.8468" x2="2133.1682" y2="1979.1996" gradientTransform="matrix(1 -0.002 0.002 1 -5.7473 1.8569)">
						<stop  offset="0" style="stop-color:#444B8C"/>
						<stop  offset="0.9964" style="stop-color:#26264F"/>
					</linearGradient>
					<path style="fill:url(#SVGID_00000181082237394597339520000011010031289378268041_);" d="M2378.171,1252.274
						c0.021,10.11-6.864,18.199-15.383,18.069c-8.525-0.13-15.458-8.441-15.479-18.564c-0.021-10.123,6.879-18.213,15.404-18.069
						C2371.233,1233.853,2378.151,1242.165,2378.171,1252.274z"/>
				</g>
			</g>
		</g>
		<g>
			<path style="fill:#A2A7AE;" d="M2193.915,2790.793c-2.992,0-5.418-2.425-5.418-5.417v-820.125c0-2.992,2.427-5.417,5.418-5.417
				c2.992,0,5.418,2.425,5.418,5.417v820.125C2199.333,2788.368,2196.907,2790.793,2193.915,2790.793z"/>
			<path style="fill:#A2A7AE;" d="M2634.531,2773.932c-2.992,0-5.418-2.425-5.418-5.417v-803.264c0-2.992,2.426-5.417,5.418-5.417
				c2.992,0,5.418,2.425,5.418,5.417v803.264C2639.949,2771.507,2637.523,2773.932,2634.531,2773.932z"/>
			<path style="fill:#FAFBFC;" d="M2590.039,2886.923c-2.349,0-4.512-1.54-5.201-3.907l-264.589-908.893
				c-0.836-2.87,0.815-5.879,3.688-6.714c2.885-0.848,5.881,0.814,6.717,3.688l264.589,908.893c0.836,2.87-0.815,5.879-3.688,6.714
				C2591.049,2886.852,2590.539,2886.923,2590.039,2886.923z"/>
			<path style="fill:#FAFBFC;" d="M2999.368,2842.249c-2.305,0-4.441-1.483-5.168-3.799l-271.1-864.219
				c-0.895-2.854,0.694-5.896,3.549-6.791c2.844-0.898,5.893,0.692,6.791,3.549l271.1,864.219c0.895,2.854-0.694,5.896-3.549,6.791
				C3000.452,2842.168,2999.906,2842.249,2999.368,2842.249z"/>
			<polygon style="fill:#D8DEE8;" points="2743.821,1973.347 2321.795,1980.707 2186.571,1973.347 2186.571,1957.155 
				2501.028,1951.969 2743.821,1957.155 			"/>
			
				<linearGradient id="SVGID_00000177474926329562605270000016880917575491643292_" gradientUnits="userSpaceOnUse" x1="465.7612" y1="1968.4071" x2="63.8631" y2="1969.765" gradientTransform="matrix(1 0 0 1 2222 0)">
				<stop  offset="0.494" style="stop-color:#EBEFF2"/>
				<stop  offset="1" style="stop-color:#FFFFFF"/>
			</linearGradient>
			<polygon style="fill:url(#SVGID_00000177474926329562605270000016880917575491643292_);" points="2743.821,1973.347 
				2321.795,1980.707 2321.795,1964.514 2743.821,1957.155 			"/>
			<path style="fill:#FAFBFC;" d="M2382.582,2174.295c-2.879,0-5.275-2.266-5.406-5.17c-0.137-2.992,2.178-5.525,5.167-5.66
				l397.578-18.006c2.967-0.142,5.52,2.178,5.656,5.167c0.137,2.992-2.178,5.525-5.167,5.66l-397.578,18.006
				C2382.749,2174.295,2382.665,2174.295,2382.582,2174.295z"/>
			<path style="fill:#FAFBFC;" d="M2435.181,2354.976c-2.857,0-5.248-2.236-5.405-5.123c-0.162-2.989,2.129-5.542,5.116-5.704
				l404.315-21.93c2.947-0.236,5.542,2.131,5.704,5.116c0.162,2.989-2.129,5.542-5.116,5.704l-404.315,21.93
				C2435.38,2354.976,2435.28,2354.976,2435.181,2354.976z"/>
			<path style="fill:#FAFBFC;" d="M2487.477,2534.623c-2.84,0-5.224-2.208-5.401-5.082c-0.186-2.985,2.085-5.555,5.072-5.741
				l407.241-25.219c2.941-0.135,5.555,2.083,5.741,5.072c0.186,2.985-2.085,5.555-5.072,5.741l-407.241,25.219
				C2487.703,2534.619,2487.59,2534.623,2487.477,2534.623z"/>
			<path style="fill:#FAFBFC;" d="M2539.476,2713.24c-2.815,0-5.192-2.175-5.398-5.025c-0.216-2.985,2.028-5.579,5.011-5.795
				l409.733-29.708c2.973-0.24,5.579,2.026,5.795,5.011s-2.028,5.579-5.011,5.795l-409.733,29.708
				C2539.74,2713.237,2539.608,2713.24,2539.476,2713.24z"/>
		</g>
		<g>
			
				<linearGradient id="SVGID_00000110467027872038423810000003663295057706994597_" gradientUnits="userSpaceOnUse" x1="-750.2009" y1="2200.9429" x2="-789.4368" y2="2071.5703" gradientTransform="matrix(-0.993 0.1177 0.1177 0.993 1497.196 -89.6996)">
				<stop  offset="0" style="stop-color:#444B8C"/>
				<stop  offset="0.9964" style="stop-color:#26264F"/>
			</linearGradient>
			<path style="fill:url(#SVGID_00000110467027872038423810000003663295057706994597_);" d="M2531.786,1940.776
				c4.845,7.729,4.09,11.347,3.257,12.991c-2.443,4.823-9.905,1.29-27.997,5.374c-2.122,0.48-6.164,1.462-11.407,0.792
				c-4.492-0.575-9.904-2.368-9.805-3.565c0.036-0.436,0.797-0.688,1.085-0.782c4.97-1.615,35.772-14.708,35.772-14.708
				L2531.786,1940.776z"/>
			
				<linearGradient id="SVGID_00000055667258815305587870000017388538476961172925_" gradientUnits="userSpaceOnUse" x1="-784.0255" y1="2175.752" x2="-784.0255" y2="1967.9017" gradientTransform="matrix(-0.993 0.1177 0.1177 0.993 1497.196 -89.6996)">
				<stop  offset="0" style="stop-color:#FFC444"/>
				<stop  offset="0.9964" style="stop-color:#F36F56"/>
			</linearGradient>
			<path style="fill:url(#SVGID_00000055667258815305587870000017388538476961172925_);" d="M2532.357,1922.614l-0.938,18.508
				c0,0-7.244,6.347-10.001-0.151c-1.984-4.673-3.302-17.691-3.302-17.691L2532.357,1922.614z"/>
			
				<linearGradient id="SVGID_00000044876605689282080780000003614045768804710831_" gradientUnits="userSpaceOnUse" x1="-710.2842" y1="2152.2214" x2="-710.2842" y2="1944.3672" gradientTransform="matrix(-0.993 0.1177 0.1177 0.993 1497.196 -89.6996)">
				<stop  offset="0" style="stop-color:#FFC444"/>
				<stop  offset="0.9964" style="stop-color:#F36F56"/>
			</linearGradient>
			<polygon style="fill:url(#SVGID_00000044876605689282080780000003614045768804710831_);" points="2440.939,1917.589 
				2450.81,1937.754 2461.783,1934.81 2457.167,1915.666 			"/>
			
				<linearGradient id="SVGID_00000158713567022378783110000003750858586209335970_" gradientUnits="userSpaceOnUse" x1="-695.8318" y1="2160.0786" x2="-735.0685" y2="2030.7032" gradientTransform="matrix(-0.993 0.1177 0.1177 0.993 1497.196 -89.6996)">
				<stop  offset="0" style="stop-color:#444B8C"/>
				<stop  offset="0.9964" style="stop-color:#26264F"/>
			</linearGradient>
			<path style="fill:url(#SVGID_00000158713567022378783110000003750858586209335970_);" d="M2455.492,1948.939
				c4.732-6.974,9.615-6.896,10.128-11.403c0.403-3.541-2.16-7.564-5.526-8.842c-4.731-1.795-9.805,2.312-10.951,3.239
				c-7.787,6.304-4.624,14.56-12.116,19.065c-1.508,0.907-3.938,1.957-6.327,4.714c-1.014,1.172-3.527,4.073-2.687,5.802
				c0.972,2,5.93,1.409,10.646,0.847c5.658-0.674,8.487-1.009,11.033-2.995C2453.223,1956.615,2451.84,1954.321,2455.492,1948.939z"
				/>
			
				<linearGradient id="SVGID_00000101808620322113229890000012717731062702616502_" gradientUnits="userSpaceOnUse" x1="-801.9973" y1="1727.2522" x2="-821.0855" y2="2156.7378" gradientTransform="matrix(-0.993 0.1177 0.1177 0.993 1497.196 -89.6996)">
				<stop  offset="0.0036" style="stop-color:#E38DDD"/>
				<stop  offset="1" style="stop-color:#9571F6"/>
			</linearGradient>
			<path style="fill:url(#SVGID_00000101808620322113229890000012717731062702616502_);" d="M2546.537,1480.791
				c2.363,42.573,0.078,79.365-3.74,109.562c-4.107,32.484-7.584,38.327-7.861,60.578c-0.601,48.418,15.45,54.011,22.794,108.073
				c8.11,59.695-3.883,108.669-8.644,127.366c-4.162,16.345-8.833,29.653-12.408,38.923c-5.099,5.248-13.657,4.104-22.668,3.037
				c-7.773-54.111-16.084-104.951-23.858-159.061c-17.309-80.936-34.618-161.869-51.927-242.804
				C2474.33,1511.238,2510.433,1496.016,2546.537,1480.791z"/>
			
				<linearGradient id="SVGID_00000140693027810562477970000002779469131289132465_" gradientUnits="userSpaceOnUse" x1="-801.9973" y1="1727.2523" x2="-821.0855" y2="2156.738" gradientTransform="matrix(-0.993 0.1177 0.1177 0.993 1497.196 -89.6996)">
				<stop  offset="0" style="stop-color:#AA80F9"/>
				<stop  offset="0.9964" style="stop-color:#6165D7"/>
			</linearGradient>
			<path style="opacity:0.3;fill:url(#SVGID_00000140693027810562477970000002779469131289132465_);" d="M2514.01,1928.329
				c-7.773-54.111-16.084-104.951-23.858-159.061c-17.309-80.936-34.618-161.869-51.927-242.804
				c36.104-15.225,72.207-30.447,108.311-45.673c0.156,2.819,0.24,5.543,0.357,8.314c-48.318,49.531-55.539,86.194-53.005,110.583
				c3.073,29.581,20.494,42.926,20.889,86.152c0.283,30.907-8.503,37.084-6.202,64.804c2.965,35.694,19.948,54.495,29.119,74.502
				c8.864,19.338,13.771,47.362,3.169,88.679c-1.486,4.299-2.907,8.153-4.186,11.467
				C2531.579,1930.539,2523.021,1929.398,2514.01,1928.329z"/>
			
				<linearGradient id="SVGID_00000045591444420103338970000003030561348427581340_" gradientUnits="userSpaceOnUse" x1="-513.7948" y1="1886.4303" x2="-863.7499" y2="1870.5229" gradientTransform="matrix(-0.993 0.1177 0.1177 0.993 1497.196 -89.6996)">
				<stop  offset="0.0036" style="stop-color:#E38DDD"/>
				<stop  offset="1" style="stop-color:#9571F6"/>
			</linearGradient>
			<path style="fill:url(#SVGID_00000045591444420103338970000003030561348427581340_);" d="M2484.224,1503.459
				c-23.467,48.331-35.614,85.848-41.985,108.92c-3.886,14.076-7.255,28.681-6.768,47.428c0.597,22.967,6.699,41.374,11.636,53.074
				c7.015,14.933,13.688,32.474,18.623,52.506c16.004,64.964,5.15,121.338-4.286,154.022c-6.393,2.988-12.786,5.979-19.179,8.968
				c-18.401-40.553-41.614-98.322-60.813-170.343c-10.486-39.335-18.564-70.197-21.913-109.972
				c-3.533-41.952-3.067-108.812,24.69-190.95C2417.561,1472.561,2450.892,1488.011,2484.224,1503.459z"/>
			
				<linearGradient id="SVGID_00000167361612941528612320000012303939733530041499_" gradientUnits="userSpaceOnUse" x1="-1031.7423" y1="1978.1246" x2="-783.5931" y2="1447.8916" gradientTransform="matrix(-0.993 0.1177 0.1177 0.993 1497.196 -89.6996)">
				<stop  offset="0" style="stop-color:#FF9085"/>
				<stop  offset="1" style="stop-color:#FB6FBB"/>
			</linearGradient>
			<path style="fill:url(#SVGID_00000167361612941528612320000012303939733530041499_);" d="M2438.875,1141.537
				c-41.345,10.681-72.655,20.825-85.091,43.974c-13.135,24.451,12.253,39.932,22.982,90.3
				c16.428,77.112-25.969,109.941-6.571,187.349c6.536,26.082,17.222,45.788,24.417,57.426c14.47,9.932,37.263,23.231,67.336,31.033
				c43.763,11.352,64.025,0.964,121.517-0.508c94.038-2.411,110.301,23.573,151.202,3.376c41.337-20.413,68.49-68.563,57.812-87.291
				c-6.396-11.215-22.916-2.513-48.661-14.799c-33.18-15.834-29.952-41.469-57.423-60.951
				c-39.458-27.984-72.341,6.305-106.127-18.073c-34.176-24.661-43.488-90.746-33.201-131.4c6.72-26.554,4.557-54.645,8.936-81.683
				c0.365-2.246,0.504-5.793-1.195-9.661c-6.492-14.792-34.596-15.406-55.824-15.672
				C2466.612,1134.551,2442.275,1140.658,2438.875,1141.537z"/>
			
				<linearGradient id="SVGID_00000183242601285509003660000013841007841510185110_" gradientUnits="userSpaceOnUse" x1="3461.125" y1="1743.8782" x2="3654.9497" y2="2142.4475" gradientTransform="matrix(0.9575 -0.2886 0.2886 0.9575 -1502.8842 536.33)">
				<stop  offset="0" style="stop-color:#FF9085"/>
				<stop  offset="1" style="stop-color:#FB6FBB"/>
			</linearGradient>
			<path style="opacity:0.3;fill:url(#SVGID_00000183242601285509003660000013841007841510185110_);" d="M2727.308,1525.337
				c-13.673-7.561-8.685-32.623-28.954-44.027c-18.813-10.585-31.398,6.341-58.318,0.469c-34.527-7.532-35.453-40.097-68.579-47.768
				c-23.82-5.516-29.593,9.875-63.008,13.289c-33.358,3.41-78.3-6.749-108.972-39.868c-13.032-14.073-20.948-29.582-25.762-44.128
				c-6.542,29.602-13.931,58.309-3.519,99.856c6.536,26.082,17.222,45.788,24.417,57.426c14.47,9.932,37.263,23.231,67.336,31.032
				c43.762,11.352,64.025,0.965,121.517-0.508c94.038-2.411,110.301,23.573,151.202,3.376
				c26.419-13.046,46.984-37.403,55.642-58.186C2755.55,1526.274,2737.232,1530.824,2727.308,1525.337z"/>
			
				<linearGradient id="SVGID_00000008137078464462472180000016981784106194407590_" gradientUnits="userSpaceOnUse" x1="-758.2935" y1="1290.2521" x2="-803.0579" y2="1362.6652" gradientTransform="matrix(-0.993 0.1177 0.1177 0.993 1497.196 -89.6996)">
				<stop  offset="0" style="stop-color:#FFC444"/>
				<stop  offset="0.9964" style="stop-color:#F36F56"/>
			</linearGradient>
			<path style="fill:url(#SVGID_00000008137078464462472180000016981784106194407590_);" d="M2408.632,1070.958
				c0,0-9.76,22.656-9.227,37.941c0.533,15.285,17.623,12.754,17.623,12.754l0.151,9.658c0.129,8.245-4.604,15.793-12.081,19.268
				l-6.578,3.057c0,0,45.038,5.807,67.788-13.27l-7.02-0.104c-9.941-0.148-18.4-7.281-20.223-17.055l-0.76-4.076
				C2438.306,1119.131,2442.049,1071.037,2408.632,1070.958z"/>
			<g>
				
					<linearGradient id="SVGID_00000008838465317386476300000007292268599012328108_" gradientUnits="userSpaceOnUse" x1="-591.5728" y1="1402.3651" x2="-681.8034" y2="1548.3263" gradientTransform="matrix(-0.993 0.1177 0.1177 0.993 1497.196 -89.6996)">
					<stop  offset="0" style="stop-color:#444B8C"/>
					<stop  offset="0.9964" style="stop-color:#26264F"/>
				</linearGradient>
				<path style="fill:url(#SVGID_00000008838465317386476300000007292268599012328108_);" d="M2363.504,1318.264l-67.337-116.154
					c-0.832-1.434-2.503-2.156-4.117-1.779l-94.213,22.017c-2.515,0.587-3.707,3.475-2.337,5.665l78.139,124.945
					c0.941,1.504,2.805,2.148,4.473,1.545l82.804-29.904L2363.504,1318.264z"/>
				
					<linearGradient id="SVGID_00000054949535437836505780000000768304135392665741_" gradientUnits="userSpaceOnUse" x1="-556.7179" y1="1382.3429" x2="-634.6576" y2="1528.6783" gradientTransform="matrix(-0.9946 0.104 0.104 0.9946 1561.4523 -80.9972)">
					<stop  offset="0" style="stop-color:#FFC444"/>
					<stop  offset="0.9964" style="stop-color:#F36F56"/>
				</linearGradient>
				<path style="fill:url(#SVGID_00000054949535437836505780000000768304135392665741_);" d="M2346.939,1305.08l-54.523-94.05
					c-0.674-1.161-2.026-1.745-3.333-1.441l-76.283,17.827c-2.038,0.475-3.002,2.814-1.893,4.587l63.268,101.167
					c0.762,1.218,2.271,1.739,3.622,1.25l67.046-24.212L2346.939,1305.08z"/>
				
					<linearGradient id="SVGID_00000100343871416757968500000005736026407642380182_" gradientUnits="userSpaceOnUse" x1="-600.7884" y1="1393.0022" x2="-579.3138" y2="1348.4625" gradientTransform="matrix(-0.993 0.1177 0.1177 0.993 1497.196 -89.6996)">
					<stop  offset="0" style="stop-color:#AA80F9"/>
					<stop  offset="0.9964" style="stop-color:#6165D7"/>
				</linearGradient>
				<path style="fill:url(#SVGID_00000100343871416757968500000005736026407642380182_);" d="M2276.325,1212.11l-4.329-7.543
					c-0.603-1.048-1.816-1.582-2.995-1.317l-39.24,8.825c-1.822,0.41-2.718,2.475-1.772,4.084l4.814,8.202
					c0.617,1.051,1.85,1.572,3.033,1.283l38.754-9.484C2276.372,1215.724,2277.239,1213.701,2276.325,1212.11z"/>
				<path style="fill:#FFFFFF;" d="M2224.93,1244.453c0.062-0.007,0.119-0.02,0.181-0.034l69.079-16.302
					c0.855-0.202,1.386-1.059,1.185-1.911c-0.206-0.858-1.089-1.372-1.914-1.181l-69.08,16.303
					c-0.855,0.202-1.386,1.059-1.185,1.911C2223.385,1244.035,2224.14,1244.546,2224.93,1244.453z"/>
				<path style="fill:#FFFFFF;" d="M2229.261,1251.147c0.065-0.008,0.132-0.022,0.196-0.036l68.656-16.947
					c0.855-0.208,1.375-1.071,1.164-1.927c-0.208-0.852-1.061-1.37-1.925-1.161l-68.656,16.946c-0.854,0.208-1.375,1.07-1.163,1.927
					C2227.726,1250.734,2228.478,1251.24,2229.261,1251.147z"/>
				<path style="fill:#FFFFFF;" d="M2265.477,1258.599c0.08-0.009,0.16-0.025,0.238-0.047l37.327-10.299
					c0.849-0.232,1.346-1.11,1.111-1.958c-0.231-0.842-1.123-1.344-1.955-1.108l-37.328,10.299c-0.849,0.232-1.345,1.111-1.11,1.959
					C2263.97,1258.208,2264.712,1258.689,2265.477,1258.599z"/>
			</g>
			
				<linearGradient id="SVGID_00000049931831065913357980000014659739516660489635_" gradientUnits="userSpaceOnUse" x1="-572.4838" y1="1460.0481" x2="-594.1342" y2="1495.0709" gradientTransform="matrix(-0.993 0.1177 0.1177 0.993 1497.196 -89.6996)">
				<stop  offset="0" style="stop-color:#FFC444"/>
				<stop  offset="0.9964" style="stop-color:#F36F56"/>
			</linearGradient>
			<path style="fill:url(#SVGID_00000049931831065913357980000014659739516660489635_);" d="M2254.516,1322.379
				c0,0-16.664-8.955-19.258-16.225c-2.594-7.27-3.606-21.353-3.606-21.353l11.135,18.824c0,0,4.25-1.714,5.457-8.427
				c1.207-6.713,5.021-1.078,4.248,3.979C2251.718,1304.234,2254.516,1322.379,2254.516,1322.379z"/>
			
				<linearGradient id="SVGID_00000021106924073700172710000015560431330794969505_" gradientUnits="userSpaceOnUse" x1="-920.3717" y1="2030.2362" x2="-672.2264" y2="1500.0112" gradientTransform="matrix(-0.993 0.1177 0.1177 0.993 1497.196 -89.6996)">
				<stop  offset="0" style="stop-color:#FF9085"/>
				<stop  offset="1" style="stop-color:#FB6FBB"/>
			</linearGradient>
			<path style="fill:url(#SVGID_00000021106924073700172710000015560431330794969505_);" d="M2360.457,1177.378
				c-7.694,5.864-19.166,15.946-28.635,31.268c-26.941,43.59-10.304,85.29-34.489,103.183c-6.916,5.118-19.486,9.999-43.708,4.179
				l-8.456,5.698c0,0-5.121,56.765,62.637,51.784c67.758-4.977,92.634-92.461,92.634-92.461L2360.457,1177.378z"/>
			
				<linearGradient id="SVGID_00000010305645900929092710000002341925724802517694_" gradientUnits="userSpaceOnUse" x1="-1006.9012" y1="1593.5703" x2="-825.9254" y2="1206.87" gradientTransform="matrix(-0.993 0.1177 0.1177 0.993 1497.196 -89.6996)">
				<stop  offset="0" style="stop-color:#444B8C"/>
				<stop  offset="0.9964" style="stop-color:#26264F"/>
			</linearGradient>
			<path style="fill:url(#SVGID_00000010305645900929092710000002341925724802517694_);" d="M2417.335,1091.961
				c2.271-0.379,3.92-3.437,5.558-2.704c1.718,0.766,1.886,5.01,0.704,8.097c-0.97,2.53-2.767,4.064-3.778,4.794
				c1.969,2.297,4.533,5.91,5.882,10.806c2.985,10.827-2.129,20.158-4.131,25.536c-9.026,24.244,11.083,59.725,31.341,76.804
				c16.464,13.884,23.056,7.206,33.16,18.823c19.669,22.608-2.531,51.092,9.294,82.736c17.982,48.117,96.995,56.325,100.267,56.626
				c1.289,0.119,2.155,0.188,3.494,0.289c35.359,2.652,88.952,6.67,123.83-25.063c26.095-23.74,35.785-62.101,30.951-94.78
				c-1.271-8.596-6.608-41.184-35.558-65.743c-4.595-3.897-31.799-26.921-65.774-24.411c-17.995,1.328-21.095,7.965-35.172,5.188
				c-19.271-3.803-32.287-19.958-40.361-29.979c-14.852-18.434-9.82-23.05-20.136-31.867c-20.215-17.272-40.876-0.68-62.178-15.637
				c-20.998-14.742-10.99-37.934-31.123-50.533c-20.77-12.993-57.758-4.789-64.291,13.276
				C2393.7,1069.74,2410.371,1093.121,2417.335,1091.961z"/>
		</g>
		<g>
			<path style="opacity:0.75;fill:#F4F7FA;" d="M1268.905,808.669c0-183.265-156.027-331.831-348.496-331.831
				S571.913,625.404,571.913,808.669c0,111.219,57.468,209.654,145.671,269.862c37.42,25.543,60.113,67.642,60.113,112.949v25.393
				c0,55.175,44.728,99.902,99.902,99.902h85.619c55.174,0,99.902-44.728,99.902-99.902v-25.393
				c0-45.307,22.694-87.406,60.113-112.949C1211.436,1018.324,1268.905,919.888,1268.905,808.669z"/>
			<ellipse style="fill:#AABBCC;" cx="920.409" cy="1464.727" rx="77.306" ry="40.928"/>
			
				<linearGradient id="SVGID_00000151540741949319405170000012724994410854428580_" gradientUnits="userSpaceOnUse" x1="821.5861" y1="1379.4733" x2="908.8849" y2="1427.7173">
				<stop  offset="0" style="stop-color:#FFFFFF"/>
				<stop  offset="1" style="stop-color:#D8DEE8"/>
			</linearGradient>
			<path style="fill:url(#SVGID_00000151540741949319405170000012724994410854428580_);" d="M817.698,1391.613v41.796
				c0,14.141,8.047,27.097,20.811,33.185c17.72,8.45,47.181,17.724,89.997,16.627c34.735-0.89,57.385-6.563,71.786-12.522
				c13.911-5.758,22.828-19.514,22.828-34.57v-23.125L817.698,1391.613z"/>
			<path style="fill:#AABBCC;" d="M817.698,1428.223c3.131,3.043,6.757,5.626,10.829,7.568
				c19.879,9.481,150.091,30.663,181.501,18.861c4.079-1.532,7.749-3.583,10.963-6.056c1.374-3.947,2.129-8.148,2.129-12.467
				v-23.126l-205.422-21.39V1428.223z"/>
			
				<linearGradient id="SVGID_00000049924309906413954200000014084805097240712127_" gradientUnits="userSpaceOnUse" x1="836.1656" y1="1353.0912" x2="923.4645" y2="1401.3352">
				<stop  offset="0" style="stop-color:#FFFFFF"/>
				<stop  offset="1" style="stop-color:#D8DEE8"/>
			</linearGradient>
			<path style="fill:url(#SVGID_00000049924309906413954200000014084805097240712127_);" d="M826.818,1363.176
				c-11.569-1.205-21.638,7.87-21.638,19.502v1.185c0,15.864,9.028,30.4,23.348,37.228c19.879,9.481,150.091,30.663,181.501,18.861
				c15.811-5.941,25.611-19.516,25.611-36.407v-0.953c0-10.042-7.588-18.462-17.576-19.502L826.818,1363.176z"/>
			<path style="fill:#BFC8D6;" d="M1018.062,1383.09l-191.244-19.914c-7.545-0.786-14.431,2.815-18.324,8.631
				c3.842,9.053,10.837,16.625,20.033,21.01c19.879,9.48,155.637,33.425,181.501,21.238c10.068-4.745,17.963-12.754,22.194-22.489
				C1029.07,1386.944,1023.998,1383.709,1018.062,1383.09z"/>
			
				<linearGradient id="SVGID_00000045597177141437856450000009473521201135754907_" gradientUnits="userSpaceOnUse" x1="863.9521" y1="1302.811" x2="951.251" y2="1351.0552">
				<stop  offset="0" style="stop-color:#FFFFFF"/>
				<stop  offset="1" style="stop-color:#D8DEE8"/>
			</linearGradient>
			<path style="fill:url(#SVGID_00000045597177141437856450000009473521201135754907_);" d="M819.336,1295.46
				c-7.818,0-14.156,6.338-14.156,14.156v32.735c0,15.864,9.028,30.4,23.348,37.229c19.879,9.481,155.637,33.425,181.501,21.237
				c15.279-7.2,25.611-21.892,25.611-38.783v-52.418c0-7.818-6.338-14.156-14.155-14.156H819.336z"/>
			<ellipse style="fill:#BFC8D6;" cx="920.409" cy="1305.651" rx="112.379" ry="26.569"/>
			
				<linearGradient id="SVGID_00000096740369299070486120000002751964826775968430_" gradientUnits="userSpaceOnUse" x1="871.1037" y1="739.5825" x2="1321.355" y2="1454.4146">
				<stop  offset="0" style="stop-color:#FCB148"/>
				<stop  offset="0.0521" style="stop-color:#FDBA46"/>
				<stop  offset="0.1424" style="stop-color:#FFC244"/>
				<stop  offset="0.3183" style="stop-color:#FFC444"/>
				<stop  offset="0.4849" style="stop-color:#FDB946"/>
				<stop  offset="0.7754" style="stop-color:#F99C4D"/>
				<stop  offset="0.8658" style="stop-color:#F8924F"/>
				<stop  offset="1" style="stop-color:#F8924F"/>
			</linearGradient>
			<path style="fill:url(#SVGID_00000096740369299070486120000002751964826775968430_);" d="M1268.905,808.669
				c0-183.265-156.027-331.831-348.496-331.831S571.913,625.404,571.913,808.669c0,111.219,57.468,209.654,145.671,269.862
				c37.42,25.543,60.113,67.642,60.113,112.949v25.393c0,55.175,44.728,99.902,99.902,99.902h85.619
				c55.174,0,99.902-44.728,99.902-99.902v-25.393c0-45.307,22.694-87.406,60.113-112.949
				C1211.436,1018.324,1268.905,919.888,1268.905,808.669z"/>
			<path style="opacity:0.5;fill:#F4F7FA;" d="M1002.639,1284.7c0,10.737-36.815,19.441-82.23,19.441
				c-45.414,0-82.231-8.704-82.231-19.441c0-10.737,36.816-19.442,82.231-19.442
				C965.824,1265.259,1002.639,1273.963,1002.639,1284.7z"/>
			<g>
				
					<linearGradient id="SVGID_00000174577325250005356260000012415560903092251290_" gradientUnits="userSpaceOnUse" x1="788.8482" y1="1289.9948" x2="880.657" y2="1021.7896">
					<stop  offset="0.494" style="stop-color:#EBEFF2"/>
					<stop  offset="1" style="stop-color:#FFFFFF"/>
				</linearGradient>
				<path style="fill:url(#SVGID_00000174577325250005356260000012415560903092251290_);" d="M898.981,1296.581
					c-2.355,0-4.399-1.75-4.708-4.147l-60.494-470.447c-0.334-2.603,1.505-4.984,4.108-5.318c2.608-0.351,4.984,1.504,5.319,4.106
					l60.494,470.447c0.334,2.604-1.505,4.984-4.108,5.318C899.386,1296.569,899.182,1296.581,898.981,1296.581z"/>
				
					<linearGradient id="SVGID_00000067226626908669877820000017291941628329293996_" gradientUnits="userSpaceOnUse" x1="876.6205" y1="1320.0394" x2="968.4293" y2="1051.8344">
					<stop  offset="0.494" style="stop-color:#EBEFF2"/>
					<stop  offset="1" style="stop-color:#FFFFFF"/>
				</linearGradient>
				<path style="fill:url(#SVGID_00000067226626908669877820000017291941628329293996_);" d="M936.555,1296.581
					c-0.202,0-0.406-0.012-0.611-0.04c-2.603-0.334-4.442-2.715-4.108-5.318l60.495-470.447c0.335-2.603,2.713-4.459,5.319-4.106
					c2.603,0.334,4.442,2.715,4.108,5.318l-60.495,470.447C940.954,1294.832,938.91,1296.581,936.555,1296.581z"/>
				
					<linearGradient id="SVGID_00000057143816563843576250000001524610705382527407_" gradientUnits="userSpaceOnUse" x1="756.8786" y1="1279.0498" x2="848.6873" y2="1010.8454">
					<stop  offset="0.494" style="stop-color:#EBEFF2"/>
					<stop  offset="1" style="stop-color:#FFFFFF"/>
				</linearGradient>
				<path style="fill:url(#SVGID_00000057143816563843576250000001524610705382527407_);" d="M985.822,821.607
					c-1.544,0-3.06-0.751-3.973-2.137l-16.695-25.328c-0.172-0.26-0.436-0.411-0.678-0.381c-0.414,0.009-0.589,0.304-0.646,0.399
					l-11.023,18.463c-1.827,3.058-5.029,4.938-8.567,5.026c-3.516,0.114-6.838-1.631-8.82-4.601l-15.136-22.693
					c-0.165-0.246-0.385-0.373-0.654-0.376c-0.322,0.06-0.472,0.114-0.633,0.346L905.7,809.544c-1.92,2.778-5.068,4.439-8.422,4.446
					h-0.021c-3.353,0-6.507-1.652-8.441-4.425l-19.169-27.461c-0.173-0.248-0.416-0.334-0.676-0.36
					c-0.274,0.012-0.488,0.151-0.639,0.411l-17.497,30.203c-1.314,2.269-4.224,3.044-6.493,1.729
					c-2.272-1.316-3.046-4.223-1.73-6.494l17.496-30.204c1.779-3.07,4.943-4.991,8.463-5.139c3.492-0.178,6.837,1.504,8.869,4.416
					l19.168,27.461c0.166,0.237,0.384,0.36,0.648,0.36h0.001c0.258-0.002,0.469-0.118,0.629-0.348l13.296-19.219
					c1.946-2.81,5.149-4.482,8.53-4.443c3.405,0.03,6.576,1.752,8.481,4.608l15.134,22.69c0.17,0.256,0.426,0.469,0.677,0.374
					c0.412-0.009,0.586-0.302,0.643-0.397l11.023-18.463c1.834-3.07,5.047-4.95,8.596-5.028c3.513-0.078,6.852,1.662,8.823,4.653
					l16.696,25.329c1.444,2.19,0.839,5.137-1.353,6.582C987.627,821.354,986.72,821.607,985.822,821.607z"/>
			</g>
			
				<linearGradient id="SVGID_00000030482983314264702760000012151813247756638895_" gradientUnits="userSpaceOnUse" x1="886.9041" y1="578.4532" x2="797.1583" y2="1318.0807">
				<stop  offset="0" style="stop-color:#FCB148"/>
				<stop  offset="0.0521" style="stop-color:#FDBA46"/>
				<stop  offset="0.1424" style="stop-color:#FFC244"/>
				<stop  offset="0.3183" style="stop-color:#FFC444"/>
				<stop  offset="0.4849" style="stop-color:#FDB946"/>
				<stop  offset="0.7754" style="stop-color:#F99C4D"/>
				<stop  offset="0.8658" style="stop-color:#F8924F"/>
				<stop  offset="1" style="stop-color:#F8924F"/>
			</linearGradient>
			<path style="opacity:0.3;fill:url(#SVGID_00000030482983314264702760000012151813247756638895_);" d="M926.734,1070.407
				c7.466-127.899,223.079-157.831,222.155-272.052c-0.569-70.348-86.248-122.592-104.544-133.056
				c-134.813-77.105-300.746,11.934-335.015-51.084c-8.532-15.69-4.532-32.77-2.254-42.496
				c3.443-14.701,11.239-28.393,22.805-40.917c-95.114,59.251-157.968,161.562-157.968,277.867
				c0,111.219,57.468,209.655,145.671,269.862c37.42,25.543,60.113,67.643,60.113,112.949v25.394
				c0,55.175,44.728,99.902,99.902,99.902h85.619c55.174,0,99.902-44.728,99.902-99.902v-20.303
				c-11.784,9.031-25.318,15.329-40.159,15.208C971.467,1211.355,923.019,1134.053,926.734,1070.407z"/>
			<ellipse style="opacity:0.44;fill:#F4F7FA;" cx="925.983" cy="821.607" rx="299.887" ry="289.209"/>
		</g>
		<g>
			<g>
				<defs>
					<path id="SVGID_00000090287897179375039530000012635191159113180058_" d="M661.168,3046.238
						c-68.83-36.282-95.31-151.396-90.086-231.648c6.099-93.697,52.967-102.272,52.041-175.511
						c-1.726-136.361-164.899-162.556-177.544-299.931c-10.337-112.305,94.791-137.414,77.685-261.26
						c-12.344-89.366-73.016-119.246-58.126-200.572c1.273-6.953,16.076-81.733,75.068-106.456
						c59.542-24.952,129.276,15.685,165.745,50.988c67.412,65.257,31.219,122.025,82.744,228.709
						c70.151,145.246,178.763,125.999,208.31,243.624c24.399,97.131-44.034,132.659-14.841,239.818
						c27.109,99.508,95.969,105.031,107.792,173.723C1117.156,2865.748,801.563,3120.243,661.168,3046.238z"/>
				</defs>
				
					<linearGradient id="SVGID_00000052077119569281550000000015301521386996513708_" gradientUnits="userSpaceOnUse" x1="824.7135" y1="2725.157" x2="662.3595" y2="2193.8157">
					<stop  offset="0.0036" style="stop-color:#F36F56"/>
					<stop  offset="1" style="stop-color:#FFC444"/>
				</linearGradient>
				
					<use xlink:href="#SVGID_00000090287897179375039530000012635191159113180058_"  style="overflow:visible;fill:url(#SVGID_00000052077119569281550000000015301521386996513708_);"/>
				<clipPath id="SVGID_00000108298853601449257770000001525211570738114743_">
					<use xlink:href="#SVGID_00000090287897179375039530000012635191159113180058_"  style="overflow:visible;"/>
				</clipPath>
				<g style="clip-path:url(#SVGID_00000108298853601449257770000001525211570738114743_);">
					<path style="opacity:0.7;fill:#FFFFFF;" d="M761.505,3108.885c-0.61,0-1.212-0.27-1.614-0.79
						c-0.692-0.892-0.532-2.175,0.36-2.867c54.135-42.084,97.088-93.641,127.666-153.242
						c28.951-56.433,58.89-114.788,47.293-180.694c-8.755-49.754-35.822-73.71-70.09-104.039
						c-33.546-29.691-75.294-66.645-110.84-140.683c-20.298-42.28-45.561-94.901-40.17-162.944
						c3.144-39.677,15.347-63.39,26.114-84.311c11.158-21.684,19.972-38.812,14.205-66.321
						c-9.452-45.1-37.942-71.356-70.934-101.763c-20.47-18.864-41.635-38.37-61.499-64.839
						c-55.927-74.531-71.323-182.376-45.757-320.543c0.203-1.108,1.271-1.84,2.379-1.638c1.109,0.206,1.842,1.273,1.636,2.381
						c-25.348,136.999-10.205,243.77,45.011,317.348c19.637,26.172,40.664,45.549,60.999,64.288
						c33.507,30.879,62.444,57.548,72.163,103.928c6.064,28.927-3.499,47.511-14.572,69.026
						c-10.59,20.58-22.594,43.908-25.674,82.767c-5.304,66.943,19.695,119.013,39.779,160.851
						c35.189,73.298,76.596,109.946,109.866,139.393c34.864,30.856,62.402,55.231,71.404,106.39
						c11.835,67.26-18.422,126.236-47.682,183.267c-30.852,60.134-74.185,112.151-128.794,154.606
						C762.384,3108.742,761.942,3108.885,761.505,3108.885z"/>
					<path style="opacity:0.7;fill:#FFFFFF;" d="M715.826,2397.81c-0.397,0-0.799-0.115-1.152-0.358
						c-215.894-147.545-236.655-299.45-236.839-300.966c-0.135-1.118,0.662-2.138,1.78-2.273c1.14-0.146,2.139,0.662,2.276,1.78
						c0.184,1.499,20.86,151.682,235.089,298.089c0.93,0.635,1.17,1.905,0.534,2.837
						C717.117,2397.499,716.477,2397.81,715.826,2397.81z"/>
					<path style="opacity:0.7;fill:#FFFFFF;" d="M789.319,2585.194c-0.503,0-1.006-0.186-1.401-0.557
						c-0.821-0.773-0.858-2.067-0.084-2.887C900,2462.797,917.979,2344.179,913.308,2265.62
						c-5.062-85.182-37.088-142.996-37.411-143.57c-0.554-0.983-0.204-2.229,0.778-2.783c0.978-0.557,2.227-0.206,2.781,0.777
						c0.328,0.581,32.76,59.074,37.919,145.144c4.758,79.41-13.338,199.278-126.571,319.364
						C790.404,2584.978,789.861,2585.194,789.319,2585.194z"/>
					<path style="opacity:0.7;fill:#FFFFFF;" d="M922.651,2893.231c-0.106,0-0.213-0.007-0.321-0.023
						c-154.737-24.284-242.914-93.702-289.637-147.66c-50.694-58.544-64.933-112.157-65.07-112.691
						c-0.282-1.091,0.375-2.205,1.467-2.489c1.093-0.28,2.207,0.378,2.487,1.469c0.137,0.527,14.207,53.371,64.352,111.208
						c46.277,53.377,133.639,122.056,287.035,146.124c1.114,0.176,1.876,1.223,1.7,2.337
						C924.506,2892.512,923.639,2893.231,922.651,2893.231z"/>
					<path style="opacity:0.7;fill:#FFFFFF;" d="M616.719,2032.808c-0.407,0-0.819-0.122-1.177-0.375
						c-0.922-0.652-1.14-1.925-0.49-2.847c71.635-101.365,69.534-197.032,55.158-259.439c-15.6-67.719-48.61-112.039-48.943-112.478
						c-0.679-0.898-0.5-2.182,0.402-2.86c0.9-0.682,2.18-0.503,2.86,0.402c0.336,0.446,33.802,45.333,49.623,113.853
						c14.606,63.258,16.789,160.219-55.765,262.88C617.99,2032.508,617.358,2032.808,616.719,2032.808z"/>
				</g>
			</g>
		</g>
		<g>
			<g>
				<defs>
					<path id="SVGID_00000178202965733320620730000006665906891707340469_" d="M765.265,3004.952
						c-37.82-42.643-26.255-128.394-1.955-182.062c28.37-62.659,62.714-56.438,80.986-106.886
						c34.021-93.927-71.08-154.009-44.283-251.451c21.906-79.658,100.458-69.731,120.703-159.05
						c14.608-64.451-19.272-100.598,11.932-152.506c2.667-4.438,32.121-51.882,78.945-53.601
						c47.26-1.735,84.575,44.127,100.462,77.744c29.367,62.139-10.1,91.712-2.319,178.151
						c10.594,117.682,90.021,132.527,79.911,220.792c-8.348,72.886-64.435,79.576-72.086,160.574
						c-7.105,75.215,38.676,96.779,29.047,146.922C1124.459,2998.937,842.406,3091.93,765.265,3004.952z"/>
				</defs>
				
					<linearGradient id="SVGID_00000031921306004898332590000014303038876181838516_" gradientUnits="userSpaceOnUse" x1="840.0067" y1="2374.3425" x2="1030.8229" y2="2802.2332">
					<stop  offset="0" style="stop-color:#FF9085"/>
					<stop  offset="1" style="stop-color:#FB6FBB"/>
				</linearGradient>
				
					<use xlink:href="#SVGID_00000178202965733320620730000006665906891707340469_"  style="overflow:visible;fill:url(#SVGID_00000031921306004898332590000014303038876181838516_);"/>
				<clipPath id="SVGID_00000005980004003992093210000013454976491592888972_">
					<use xlink:href="#SVGID_00000178202965733320620730000006665906891707340469_"  style="overflow:visible;"/>
				</clipPath>
				<g style="clip-path:url(#SVGID_00000005980004003992093210000013454976491592888972_);">
					<path style="opacity:0.7;fill:#FFFFFF;" d="M818.404,3074.446c-0.873,0-1.68-0.561-1.95-1.438
						c-0.334-1.077,0.268-2.222,1.346-2.556c47.896-14.849,90.583-39.069,126.875-71.981c34.351-31.15,69.87-63.36,78.901-111.361
						c6.808-36.181-5.523-59.516-21.137-89.062c-15.354-29.056-34.464-65.22-39.727-125.264
						c-3.006-34.293-6.747-76.969,14.578-122.356c12.444-26.489,26.976-39.636,39.797-51.233
						c13.167-11.911,23.567-21.319,26.687-41.477c5.135-33.183-7.581-58.466-22.305-87.741c-9.175-18.239-18.661-37.1-25.458-60.425
						c-19.148-65.683-1.841-143.736,51.437-231.994c0.588-0.962,1.844-1.273,2.805-0.692c0.966,0.584,1.277,1.841,0.694,2.806
						c-52.664,87.235-69.828,164.197-51.015,228.739c6.693,22.964,16.095,41.656,25.186,59.729
						c15.04,29.904,28.029,55.728,22.692,90.207c-3.34,21.586-14.759,31.916-27.982,43.878
						c-12.536,11.34-26.743,24.193-38.839,49.939c-20.858,44.391-17.171,86.458-14.207,120.262
						c5.19,59.223,23.296,93.486,39.271,123.714c15.983,30.251,28.61,54.144,21.539,91.727
						c-9.285,49.348-45.321,82.028-80.17,113.63c-36.737,33.318-79.941,57.831-128.411,72.859
						C818.808,3074.415,818.603,3074.446,818.404,3074.446z"/>
					<path style="opacity:0.7;fill:#FFFFFF;" d="M970.665,2575.181c-0.643,0-1.277-0.304-1.675-0.871
						c-110.055-157.085-85.016-266.821-84.75-267.912c0.267-1.098,1.364-1.756,2.467-1.503c1.096,0.267,1.768,1.371,1.501,2.469
						c-0.26,1.074-24.77,109.169,84.128,264.603c0.647,0.925,0.422,2.198-0.501,2.844
						C971.479,2575.059,971.07,2575.181,970.665,2575.181z"/>
					<path style="opacity:0.7;fill:#FFFFFF;" d="M972.671,2722.611c-0.757,0-1.482-0.422-1.837-1.145
						c-0.495-1.016-0.074-2.239,0.939-2.732c107.406-52.492,150.279-129.005,167.333-183.946
						c18.498-59.594,11.489-107.413,11.414-107.889c-0.171-1.115,0.594-2.158,1.709-2.33c1.14-0.176,2.16,0.594,2.33,1.709
						c0.074,0.483,7.227,49.078-11.494,109.533c-17.27,55.771-60.695,133.416-169.499,186.59
						C973.277,2722.544,972.972,2722.611,972.671,2722.611z"/>
					<path style="opacity:0.7;fill:#FFFFFF;" d="M984.545,2968.205c-0.341,0-0.687-0.084-1.006-0.267
						c-99.953-56.673-142.549-127.145-160.682-176.284c-19.681-53.34-15.59-93.898-15.546-94.3c0.122-1.121,1.14-1.959,2.251-1.81
						c1.121,0.122,1.932,1.128,1.812,2.249c-0.042,0.395-4.022,40.177,15.396,92.662c17.92,48.433,60.013,117.926,158.786,173.93
						c0.981,0.557,1.326,1.803,0.768,2.783C985.948,2967.833,985.256,2968.205,984.545,2968.205z"/>
					<path style="opacity:0.7;fill:#FFFFFF;" d="M996.952,2299.37c-0.655,0-1.299-0.314-1.692-0.898
						c-0.633-0.932-0.39-2.202,0.545-2.836c143.726-97.366,100.508-251.213,100.054-252.753c-0.317-1.084,0.302-2.219,1.385-2.536
						c1.082-0.321,2.217,0.304,2.535,1.381c0.463,1.57,44.565,158.213-101.684,257.291
						C997.745,2299.255,997.347,2299.37,996.952,2299.37z"/>
				</g>
			</g>
		</g>
		<g>
			
				<linearGradient id="SVGID_00000103976423596307632030000015568447905142313100_" gradientUnits="userSpaceOnUse" x1="721.1603" y1="3106.1318" x2="2738.2673" y2="3106.1318">
				<stop  offset="0" style="stop-color:#311944"/>
				<stop  offset="1" style="stop-color:#893976"/>
			</linearGradient>
			<polygon style="fill:url(#SVGID_00000103976423596307632030000015568447905142313100_);" points="721.16,3082.661 
				721.16,2996.979 1571.933,3009.912 2738.267,3044.193 2738.267,3129.876 1857.841,3215.284 			"/>
			
				<linearGradient id="SVGID_00000016035368203325748510000012655161677809740430_" gradientUnits="userSpaceOnUse" x1="1571.9326" y1="3106.1318" x2="2738.2673" y2="3106.1318">
				<stop  offset="0" style="stop-color:#FFFFFF"/>
				<stop  offset="0.9964" style="stop-color:#EBEFF2"/>
			</linearGradient>
			<polygon style="opacity:0.19;fill:url(#SVGID_00000016035368203325748510000012655161677809740430_);" points="
				1857.841,2996.979 1571.933,3009.912 2738.267,3044.193 2738.267,3129.876 1857.841,3215.284 			"/>
			
				<linearGradient id="SVGID_00000072998452575621755130000006145842220251541406_" gradientUnits="userSpaceOnUse" x1="721.1603" y1="3026.9155" x2="2738.2673" y2="3026.9155">
				<stop  offset="0" style="stop-color:#FF9085"/>
				<stop  offset="1" style="stop-color:#FB6FBB"/>
			</linearGradient>
			<polygon style="fill:url(#SVGID_00000072998452575621755130000006145842220251541406_);" points="721.16,2996.979 
				1571.933,2924.229 2738.267,3044.193 1857.841,3129.602 			"/>
			<path style="fill:#FFFFFF;" d="M1894.622,3155.153c-2.638,0-4.895-2.006-5.157-4.684c-0.277-2.854,1.81-5.39,4.662-5.667
				l818.518-79.569c2.835-0.314,5.385,1.81,5.665,4.66c0.277,2.854-1.81,5.39-4.662,5.667l-818.518,79.569
				C1894.959,3155.146,1894.791,3155.153,1894.622,3155.153z"/>
			<path style="fill:#FFFFFF;" d="M1894.098,3192.52c-2.634,0-4.89-1.999-5.155-4.674c-0.282-2.854,1.8-5.393,4.65-5.673
				l819.041-81.204c2.852-0.257,5.391,1.803,5.673,4.65c0.282,2.854-1.8,5.393-4.65,5.677l-819.041,81.197
				C1894.443,3192.513,1894.271,3192.52,1894.098,3192.52z"/>
			<g>
				
					<linearGradient id="SVGID_00000101791378154204377360000011065065069465482676_" gradientUnits="userSpaceOnUse" x1="721.1602" y1="3061.3733" x2="2738.2664" y2="3061.3733">
					<stop  offset="0" style="stop-color:#FF9085"/>
					<stop  offset="1" style="stop-color:#FB6FBB"/>
				</linearGradient>
				<path style="fill:url(#SVGID_00000101791378154204377360000011065065069465482676_);" d="M2472.437,3069.981
					c-134.955-45.97-247.908-55.691-336.158-52.738c-136.704,4.574-177.688,38.322-360.064,39.775
					c-237.452,1.891-316.12-54.139-496.135-62.802c-79.704-3.835-180.36,1.612-299.497,33.031l877.258,102.355L2472.437,3069.981z"
					/>
			</g>
			<path style="opacity:0.67;fill:#FFFFFF;" d="M1926.457,3100.351c-0.258,0-0.518-0.013-0.782-0.044l-793.29-89.238
				c-3.796-0.426-6.526-3.85-6.099-7.646c0.427-3.796,3.845-6.521,7.646-6.099l793.29,89.238c3.796,0.426,6.526,3.85,6.099,7.646
				C1932.924,3097.74,1929.93,3100.351,1926.457,3100.351z"/>
			<path style="opacity:0.67;fill:#FFFFFF;" d="M1616.673,3018.603c-0.248,0-0.498-0.014-0.75-0.041l-287.154-30.933
				c-3.797-0.409-6.545-3.82-6.134-7.615c0.41-3.799,3.833-6.535,7.617-6.136l287.154,30.934c3.797,0.409,6.545,3.819,6.134,7.615
				C1623.159,3015.972,1620.16,3018.603,1616.673,3018.603z"/>
		</g>
		<g>
			
				<linearGradient id="SVGID_00000123403774078949455030000003180595302464873102_" gradientUnits="userSpaceOnUse" x1="2330.4558" y1="2942.4753" x2="2342.4868" y2="3095.5955">
				<stop  offset="0" style="stop-color:#311944"/>
				<stop  offset="1" style="stop-color:#A03976"/>
			</linearGradient>
			<path style="fill:url(#SVGID_00000123403774078949455030000003180595302464873102_);" d="M2353.92,3018.84
				c0,0-48.43,22.01-49.22,25.524c-0.791,3.513,31.145-1.178,44.183-0.672c13.037,0.508,23.762-3.345,22.582-8.868
				c-1.18-5.522-5.744-19.411-5.744-19.411L2353.92,3018.84z"/>
			
				<linearGradient id="SVGID_00000041996280044256867530000002300946797983618228_" gradientUnits="userSpaceOnUse" x1="2361.5149" y1="3027.7224" x2="2359.3276" y2="2869.1357">
				<stop  offset="0" style="stop-color:#FFC444"/>
				<stop  offset="0.9964" style="stop-color:#F36F56"/>
			</linearGradient>
			<path style="fill:url(#SVGID_00000041996280044256867530000002300946797983618228_);" d="M2352.148,3000.977l2.946,21.804
				c0,0,7.667,2.729,12.817-0.497l2.197-23.915L2352.148,3000.977z"/>
			
				<linearGradient id="SVGID_00000036228386656550764850000014762061782655496888_" gradientUnits="userSpaceOnUse" x1="2557.8127" y1="2924.6128" x2="2569.8435" y2="3077.7312">
				<stop  offset="0" style="stop-color:#311944"/>
				<stop  offset="1" style="stop-color:#A03976"/>
			</linearGradient>
			<path style="fill:url(#SVGID_00000036228386656550764850000014762061782655496888_);" d="M2580.219,3001.5l5.633,9.042
				c1.575,2.53,2.045,5.574,1.29,8.456c-1.97,7.52-5.904,22.175-7.62,25.997c-2.336,5.205-33.677,8.297-33.677,8.297
				s-2.794-3.933,3.712-8.683c6.507-4.75,10.689-5.497,12.986-12.507c2.296-7.009,3.828-26.837,3.828-26.837L2580.219,3001.5z"/>
			
				<linearGradient id="SVGID_00000183939860068690502220000003516517737423522222_" gradientUnits="userSpaceOnUse" x1="2569.8774" y1="3024.8486" x2="2567.6899" y2="2866.2598">
				<stop  offset="0" style="stop-color:#FFC444"/>
				<stop  offset="0.9964" style="stop-color:#F36F56"/>
			</linearGradient>
			<path style="fill:url(#SVGID_00000183939860068690502220000003516517737423522222_);" d="M2556.773,2978.519
				c2.057,1.641,12.123,32.192,12.123,32.192s3.258,4.166,9.448-1.982c6.189-6.149,2.801-2.758,2.801-2.758l-1.16-30.048
				L2556.773,2978.519z"/>
			
				<linearGradient id="SVGID_00000039108200481460521480000003859056933958040758_" gradientUnits="userSpaceOnUse" x1="2323.6677" y1="2770.8145" x2="2440.9236" y2="2770.8145">
				<stop  offset="0" style="stop-color:#444B8C"/>
				<stop  offset="0.9964" style="stop-color:#3E4177"/>
			</linearGradient>
			<path style="fill:url(#SVGID_00000039108200481460521480000003859056933958040758_);" d="M2325.502,2562.906
				c-2.555,65.043-2.659,135.709,1.083,211.202c4.214,85.011,12.682,163.582,23.353,234.807c3.967,0.126,8.136,0.148,12.49,0.026
				c2.94-0.082,5.79-0.225,8.543-0.415c5.538-14.768,12.084-34.19,17.945-57.389c6.163-24.393,9.88-46.274,12.529-67.197
				c9.326-73.671-1.603-80.098,5.966-134.695c6.702-48.353,16.235-50.241,27.426-118.893c12.142-74.489,3.103-85.664-1.293-89.701
				C2414.833,2523.466,2370.88,2535.166,2325.502,2562.906z"/>
			
				<linearGradient id="SVGID_00000174569604645442375270000017320026814704073889_" gradientUnits="userSpaceOnUse" x1="2323.6675" y1="2770.8193" x2="2440.9226" y2="2770.8193">
				<stop  offset="0" style="stop-color:#444B8C"/>
				<stop  offset="0.9964" style="stop-color:#3E4177"/>
			</linearGradient>
			<path style="opacity:0.3;fill:url(#SVGID_00000174569604645442375270000017320026814704073889_);" d="M2433.544,2540.653
				c-17.847-16.393-58.662-6.469-101.769,18.549c49.592,53.58,54.998,88.338,49.053,110.89
				c-6.719,25.489-27.147,32.83-27.069,60.701c0.096,34.251,31.007,43.324,30.351,79.568c-0.435,23.966-14.018,23.718-17.226,53.319
				c-3.795,35.023,13.951,47.092,8.203,73.005c-2.473,11.149-9.531,25.716-29.632,40.722c1.449,10.641,2.935,21.175,4.484,31.511
				c3.966,0.125,8.135,0.147,12.489,0.023c2.94-0.081,5.791-0.223,8.543-0.415c5.538-14.768,12.084-34.189,17.946-57.388
				c6.163-24.394,9.88-46.274,12.529-67.198c9.326-73.67-1.603-80.098,5.966-134.695c6.702-48.353,16.235-50.242,27.425-118.893
				C2446.978,2555.863,2437.94,2544.688,2433.544,2540.653z"/>
			
				<linearGradient id="SVGID_00000085938193082367024030000009879825790066081666_" gradientUnits="userSpaceOnUse" x1="2356.2202" y1="2759.2561" x2="2592.2686" y2="2759.2561">
				<stop  offset="0" style="stop-color:#444B8C"/>
				<stop  offset="0.9964" style="stop-color:#3E4177"/>
			</linearGradient>
			<path style="fill:url(#SVGID_00000085938193082367024030000009879825790066081666_);" d="M2356.22,2561.814
				c42.7,62.479,88.757,140.238,129.946,233.311c31.127,70.336,53.702,136.376,70.276,195.231c2.243,1.038,7.534,3.11,14.294,2.216
				c9.222-1.219,14.748-7.105,16.193-8.748c6.746-42.191,6.002-77.924,3.713-103.713c-1.466-16.511-4.061-44.009-14.585-77.954
				c-11.788-38.023-19.893-40.16-35.272-80.388c-15.963-41.754-12.096-52.175-27.384-104.428
				c-6.279-21.465-16.792-53.409-34.138-91.62C2438.248,2537.752,2397.234,2549.783,2356.22,2561.814z"/>
			<path style="fill:#FFFFFF;" d="M2159.078,2641.107c8.213,12.771,36.475,11.277,55.779,4.376
				c45.134-16.138,74.018-73.539,76.56-119.215c0.545-9.808,0.2-19.396,2.187-19.687c5-0.736,17.84,58.564,27.918,108.838
				c8.102,2.966,20.386,6.115,34.423,3.815c22.975-3.763,25.71-18.037,51.405-27.344c14.992-5.43,29.681-5.442,59.06-5.468
				c33.166-0.029,34.079,4.062,40.467,1.094c11.821-5.49,25.746-27.417-44.573-299.806c-4.622-17.904-12.413-46.529-34.184-54.861
				c-17.832-6.825-40.756,5.875-85.877,31.552c-22.547,12.831-47.743,27.353-77.306,53.173
				c-20.137,17.588-34.156,29.831-45.706,46.825c-46.575,68.527,7.252,125.638-34.999,213.274
				C2169.706,2607.806,2150.478,2627.735,2159.078,2641.107z"/>
			
				<linearGradient id="SVGID_00000165936275886320115190000014286349343166690988_" gradientUnits="userSpaceOnUse" x1="2358.0657" y1="2579.9448" x2="2443.375" y2="2342.0632">
				<stop  offset="0.0036" style="stop-color:#F36F56"/>
				<stop  offset="1" style="stop-color:#FFC444"/>
			</linearGradient>
			<path style="opacity:0.3;fill:url(#SVGID_00000165936275886320115190000014286349343166690988_);" d="M2455.474,2550.33
				c-13.195-6.868-9.859-21.289-21.327-29.53c-17.096-12.285-37.948,10.107-60.701,6.562c-49.656-7.737-54.683-130.64-86.95-131.245
				c-15.185-0.286-29.828,26.69-34.452,47.576c-8.09,36.549,22.888,52.854,18.046,98.434c-0.868,8.175-1.781,6.864-22.968,67.263
				c-2.819,8.036-5.402,15.47-7.738,22.237c30.877-24.337,49.988-68.621,52.033-105.36c0.545-9.808,0.2-19.396,2.187-19.687
				c5-0.736,17.84,58.564,27.918,108.838c8.102,2.966,20.386,6.115,34.423,3.815c22.975-3.763,25.71-18.037,51.405-27.344
				c14.992-5.43,29.681-5.442,59.06-5.468c33.166-0.029,34.079,4.062,40.467,1.094c4.838-2.247,10.019-7.275,9.643-31.069
				c-9.751-6.066-18.122-7.815-24.955-7.758C2477.555,2548.809,2467.316,2556.493,2455.474,2550.33z"/>
			
				<linearGradient id="SVGID_00000048466549073810424100000017028973340057583774_" gradientUnits="userSpaceOnUse" x1="2316.0493" y1="2339.9265" x2="2316.0493" y2="2245.1831">
				<stop  offset="0" style="stop-color:#FFC444"/>
				<stop  offset="0.9964" style="stop-color:#F36F56"/>
			</linearGradient>
			<path style="fill:url(#SVGID_00000048466549073810424100000017028973340057583774_);" d="M2284.305,2252.051
				c0,0,12.126,13.768,25.158,20.903c11.778,6.448,37.742-4.413,43.749-5.689c6.007-1.276-1.201,14.9-12.535,26.049
				c-11.333,11.148-48.794,36.646-58.898,37.072c-10.103,0.427,1.627-8.421,7.832-18.725c6.204-10.303-2.539-31.604-10.371-38.168
				C2271.409,2266.929,2284.305,2252.051,2284.305,2252.051z"/>
			<g>
				<path style="fill:#D8DEE8;" d="M2642.333,2303.181l-256.011,194.581c-7.255,5.514-17.608,4.103-23.122-3.152l0,0
					c-5.514-7.255-4.104-17.607,3.152-23.122l256.011-194.581c7.256-5.514,17.607-4.103,23.122,3.152l0,0
					C2651,2287.314,2649.588,2297.666,2642.333,2303.181z"/>
				<path style="fill:#D8DEE8;" d="M2693.724,2222.669l-55.937,42.514l-24.415-32.122l55.937-42.515
					c0.974-0.74,2.363-0.551,3.103,0.423l21.735,28.597C2694.887,2220.54,2694.698,2221.929,2693.724,2222.669z"/>
				<path style="fill:#26264F;" d="M1651.178,3000.573l-23.872,18.144c-2.685,2.041-6.517,1.519-8.558-1.167l0,0
					c-2.042-2.686-1.519-6.517,1.167-8.559l23.872-18.144L1651.178,3000.573z"/>
				<path style="fill:#D8DEE8;" d="M1633.697,3006.188L1633.697,3006.188c3.743,4.924,10.43,6.54,16.008,3.868l115.139-55.138
					l-46.642-61.367l-83.947,96.177C1630.188,2994.388,1629.955,3001.263,1633.697,3006.188z"/>
				<path style="fill:#FFFFFF;" d="M1636.988,2996.961L1636.988,2996.961c1.025,1.349,5.369-0.118,10.399-3.512l97.427-78.441
					l-12.775-16.808l-88.884,89.682C1638.539,2991.819,1635.963,2995.612,1636.988,2996.961z"/>
				
					<linearGradient id="SVGID_00000061432621140824010760000006956790425033115811_" gradientUnits="userSpaceOnUse" x1="1536.4938" y1="2803.5801" x2="1609.3086" y2="3074.7529" gradientTransform="matrix(0.7961 -0.6051 0.6051 0.7961 -873.4078 1172.5966)">
					<stop  offset="0" style="stop-color:#FFC444"/>
					<stop  offset="0.9964" style="stop-color:#F36F56"/>
				</linearGradient>
				<path style="fill:url(#SVGID_00000061432621140824010760000006956790425033115811_);" d="M2652.645,2278.362l-890.204,678.385
					c-16.946,12.88-63.588-48.488-46.642-61.368l890.204-678.385c10.109-7.683,24.532-5.716,32.216,4.392l18.819,24.761
					C2664.72,2256.256,2662.753,2270.679,2652.645,2278.362z"/>
				<polygon style="fill:#FFFFFF;" points="2431.593,2390.291 1731.968,2923.825 1720.976,2909.363 2420.6,2375.828 				"/>
				
					<linearGradient id="SVGID_00000026862040732477596150000016555613240865342871_" gradientUnits="userSpaceOnUse" x1="1891.542" y1="2975.7576" x2="1901.786" y2="2975.7576" gradientTransform="matrix(0.7961 -0.6051 0.6051 0.7961 -873.4078 1172.5966)">
					<stop  offset="0" style="stop-color:#AA80F9"/>
					<stop  offset="0.9964" style="stop-color:#6165D7"/>
				</linearGradient>
				<polygon style="fill:url(#SVGID_00000026862040732477596150000016555613240865342871_);" points="2464.649,2421.633 
					2456.494,2427.83 2409.666,2366.219 2417.82,2360.021 				"/>
				
					<rect x="2618.94" y="2213.176" transform="matrix(0.7962 -0.6051 0.6051 0.7962 -827.6826 2046.7325)" style="fill:#FFFFFF;" width="10.242" height="77.387"/>
				
					<linearGradient id="SVGID_00000145778738047590286370000016866311518074512018_" gradientUnits="userSpaceOnUse" x1="1536.2666" y1="2802.7305" x2="1609.2592" y2="3074.5654" gradientTransform="matrix(0.7961 -0.6051 0.6051 0.7961 -873.4078 1172.5966)">
					<stop  offset="0.0036" style="stop-color:#F36F56"/>
					<stop  offset="1" style="stop-color:#FFC444"/>
				</linearGradient>
				<path style="opacity:0.3;fill:url(#SVGID_00000145778738047590286370000016866311518074512018_);" d="M2606.002,2216.994
					l-426.204,325.721c-21.984,79.729-53.261,109.841-80.992,120.977c-19.259,7.733-48.341,10.961-79.518,37.546
					c-30.108,25.674-23.569,40.216-50.073,57.966c-39.292,26.314-71.081,6.014-95.448,33.628
					c-13.103,14.85-5.059,22.021-18.91,49.412c-5.136,10.16-26.531,52.465-72.001,67.44c-26.448,8.71-51.416,5.002-70.192-1.082
					c4.318,21.968,36.351,58.346,49.776,48.143l890.204-678.384c10.108-7.683,12.075-22.105,4.391-32.215l-18.819-24.761
					C2630.534,2211.278,2616.111,2209.311,2606.002,2216.994z"/>
			</g>
			
				<linearGradient id="SVGID_00000047750868700162416950000005284089510410911374_" gradientUnits="userSpaceOnUse" x1="2134.5261" y1="2654.0005" x2="2177.2375" y2="2654.0005">
				<stop  offset="0" style="stop-color:#FFC444"/>
				<stop  offset="0.9964" style="stop-color:#F36F56"/>
			</linearGradient>
			<path style="fill:url(#SVGID_00000047750868700162416950000005284089510410911374_);" d="M2177.238,2640.647
				c0,0-17.423,8.323-29.754,10.065c-12.331,1.743-15.011,11.592-11.588,15.212c3.422,3.619,23.045-0.344,29.608-4.035
				C2172.066,2658.197,2177.238,2640.647,2177.238,2640.647z"/>
			
				<linearGradient id="SVGID_00000049189186943744590930000011354965814116174510_" gradientUnits="userSpaceOnUse" x1="2464.4561" y1="2425.1721" x2="2516.55" y2="2425.1721">
				<stop  offset="0" style="stop-color:#FFC444"/>
				<stop  offset="0.9964" style="stop-color:#F36F56"/>
			</linearGradient>
			<path style="fill:url(#SVGID_00000049189186943744590930000011354965814116174510_);" d="M2516.55,2421.135
				c0,0-13.669-2.05-20.352,4.512c-6.682,6.562-23.99,16.025-31.742,12.729l25.85-19.647l26.244-7.437V2421.135z"/>
			<path style="fill:#FFFFFF;" d="M2511.254,2425.647c9.962-0.34,50.61-2.854,80.934-34.999
				c30.71-32.552,42.502-86.657,19.687-123.591c-18.216-29.49-51.762-37.131-86.126-44.958c-44.823-10.21-80.023-2.455-94.088,1.355
				c-23.931,6.482-60.91,16.5-64.877,38.635c-4.384,24.465,32.16,60.38,67.744,62.134c35.914,1.772,55.127-32.025,87.607-21.76
				c2.204,0.697,17.796,5.859,25.123,19.688c11.564,21.829-1.535,57.569-35.686,86.208
				C2511.466,2414.123,2511.36,2419.884,2511.254,2425.647z"/>
			<g>
				
					<linearGradient id="SVGID_00000019641728777033456840000009500472819873984435_" gradientUnits="userSpaceOnUse" x1="8560.3223" y1="5668.0757" x2="8657.1484" y2="5706.1143" gradientTransform="matrix(0.8789 -0.477 0.477 0.8789 1300.078 210.4266)">
					<stop  offset="0" style="stop-color:#893976"/>
					<stop  offset="1" style="stop-color:#311944"/>
				</linearGradient>
				<path style="fill:url(#SVGID_00000019641728777033456840000009500472819873984435_);" d="M2256.443,2262.822
					c-6.598-3.104-11.036-13.845-7.776-21.979c2.419-6.037,8.22-8.499,12.449-10.294c1.957-0.831,15.803-6.513,24.684,0.585
					c2.822,2.256,5.024,6.279,5.719,10.079c0.357,1.956,0.376,4.649,0.041,10.014c-0.298,4.76-0.21,4.552-0.334,5.958
					c-0.297,3.378-1.218,9.319-4.511,17.554c-1.371-1.504-3.188-3.3-5.481-5.07c-0.882-0.681-4.373-3.319-8.341-4.918
					C2264.835,2261.505,2261.601,2265.249,2256.443,2262.822z"/>
				
					<linearGradient id="SVGID_00000038400673504144536070000001606677043693040265_" gradientUnits="userSpaceOnUse" x1="2249.0791" y1="2312.6223" x2="2293.3748" y2="2226.4915">
					<stop  offset="0" style="stop-color:#FFC444"/>
					<stop  offset="0.9964" style="stop-color:#F36F56"/>
				</linearGradient>
				<path style="fill:url(#SVGID_00000038400673504144536070000001606677043693040265_);" d="M2291.743,2265.56
					c0,0-0.613,13.165-13.018,18.945c-11.107,5.175-25.849-18.015-21.793-26.871c1.352-2.954,5.542-6.167,9.836-7.163
					c2.535-0.588,3.78-0.081,7.904-1.122c3.803-0.96,4.543-1.845,6.012-1.549c1.837,0.37,4.179,2.46,5.93,10.642
					c0.911-3.193,2.932-5.333,5.122-5.465c0.349-0.021,1.36,0.077,2.19,0.609C2296.929,2255.512,2296.342,2260.394,2291.743,2265.56
					z"/>
				
					<linearGradient id="SVGID_00000113322107896148469040000012101692158834161305_" gradientUnits="userSpaceOnUse" x1="2284.8091" y1="2275.4753" x2="2314.7791" y2="2298.5291">
					<stop  offset="0" style="stop-color:#893976"/>
					<stop  offset="1" style="stop-color:#311944"/>
				</linearGradient>
				<path style="fill:url(#SVGID_00000113322107896148469040000012101692158834161305_);" d="M2285.285,2251.174
					c0,0,1.106,10.797,0,14.274c-1.106,3.476-5.68,8.249-12.796,8.944c-7.116,0.695-11.799,0-11.799,0s5.315,12.39,7.527,12.863
					c2.212,0.474,15.766-0.172,18.233-2.456c2.468-2.285,5.5-12.269,4.774-16.679c-0.726-4.411-4.774-14.393-4.774-14.393
					L2285.285,2251.174z"/>
			</g>
		</g>
		<g>
			<g>
				<path style="fill:#D8DEE8;" d="M1178.72,2919.939c12.149,6.168,27.412,0.504,34.091-12.65
					c6.679-13.155,2.245-28.82-9.905-34.988c-0.629-0.319-1.272-0.588-1.915-0.845c2.257-7.279,3.958-14.615,5.1-21.954
					c0.696-0.002,1.395-0.013,2.105-0.077c13.861-1.235,24.862-13.972,24.572-28.449c-0.29-14.477-11.762-25.211-25.623-23.975
					c-0.724,0.065-1.436,0.179-2.144,0.305c-1.448-7.174-3.432-14.183-5.934-20.965c0.638-0.373,1.272-0.758,1.892-1.193
					c11.858-8.308,15.65-24.706,8.468-36.625c-7.182-11.92-22.617-14.847-34.476-6.539c-0.608,0.426-1.18,0.885-1.745,1.352
					c-4.684-5.178-9.82-9.976-15.379-14.356c0.391-0.641,0.773-1.29,1.119-1.971c6.679-13.155,15.407-27.525,3.162-33.502
					c-28.324-13.828-40.479-1.991-47.158,11.164c-0.346,0.682-0.644,1.374-0.931,2.067c-6.816-1.903-13.721-3.219-20.665-3.945
					c0.043-0.731,0.077-1.465,0.062-2.206c-0.291-14.476,4.005-22.311-9.908-22.581c-30.34-0.59-40.576,12.579-40.286,27.055
					c0.016,0.757,0.078,1.496,0.154,2.231c-6.953,1.982-13.781,4.516-20.428,7.581c-0.316-0.646-0.644-1.288-1.019-1.911
					c-7.181-11.919-22.617-14.846-34.476-6.538c-11.859,8.309-15.65,24.706-8.468,36.625c0.368,0.611,0.771,1.182,1.18,1.746
					c-5.251,5.252-10.17,10.955-14.714,17.073c-0.588-0.369-1.184-0.729-1.813-1.049c-12.149-6.168-27.412-0.504-34.091,12.65
					s-2.245,28.819,9.904,34.988c0.629,0.32,1.272,0.588,1.917,0.845c-2.257,7.279-3.959,14.615-5.101,21.954
					c-0.696,0.003-1.395,0.014-2.104,0.077c-13.862,1.236-24.863,13.972-24.573,28.45c0.29,14.477,11.763,25.211,25.624,23.975
					c0.724-0.064,1.435-0.178,2.143-0.304c1.448,7.174,3.432,14.182,5.934,20.965c-0.637,0.373-1.272,0.759-1.892,1.193
					c-11.858,8.308-15.649,24.706-8.468,36.625c7.181,11.92,30.958,17.457,42.817,9.149c0.608-0.426-7.162-3.495-6.597-3.962
					c4.684,5.178,9.821,9.977,15.379,14.356c-0.39,0.641-0.773,1.29-1.119,1.971c-6.679,13.155-2.245,28.819,9.905,34.988
					c12.149,6.168,27.412,0.504,34.092-12.65c0.346-0.682,0.644-1.374,0.931-2.067c6.815,1.903,13.72,3.219,20.665,3.945
					c-0.044,0.731-0.077,1.464-0.063,2.206c0.29,14.476,11.763,25.21,25.623,23.975c13.86-1.236,24.862-13.973,24.572-28.449
					c-0.015-0.757-0.078-1.496-0.154-2.231c6.953-1.982,13.782-4.516,20.428-7.581c0.316,0.646,0.644,1.288,1.019,1.911
					c7.182,11.919,22.617,14.847,34.476,6.538c11.859-8.309,15.651-24.706,8.469-36.626c-0.368-0.61-0.771-1.181-1.18-1.745
					c5.252-5.252,10.169-10.955,14.714-17.073C1177.495,2919.259,1178.091,2919.619,1178.72,2919.939z M1027.271,2921.861
					c-44.111-22.396-60.211-79.271-35.96-127.033c24.25-47.763,79.667-68.327,123.778-45.931
					c44.11,22.396,60.21,79.27,35.961,127.033C1126.798,2923.693,1071.381,2944.257,1027.271,2921.861z"/>
				<path style="fill:#D8DEE8;" d="M1208.197,2849.425c13.861-1.236,24.862-13.973,24.572-28.45
					c-0.29-14.477-11.762-25.211-25.623-23.975c-0.724,0.064-1.436,0.179-2.144,0.304c-1.447-7.175-3.432-14.182-5.934-20.965
					c0.638-0.372,1.272-0.758,1.892-1.193c11.858-8.308,26.53-28.383,18.163-39.502c-15.88-21.105-32.313-11.97-44.171-3.662
					c-0.608,0.426-1.18,0.885-1.744,1.352c-4.684-5.178-9.821-9.976-15.379-14.355c0.391-0.641,0.773-1.29,1.119-1.971
					c3.635-7.159,3.956-15.053,1.555-21.764c-11.454,20.16-22.754,40.405-33.851,60.759c35.19,25.786,46.393,76.603,24.397,119.927
					c-18.639,36.712-55.692,57.327-91.87,54.744c-1.614,4.186-3.198,8.394-4.927,12.539c-4.69,11.249-10.018,22.265-15.352,33.268
					c3.355,0.632,6.725,1.13,10.104,1.484c-0.044,0.732-0.077,1.464-0.063,2.206c0.29,14.477,9.079,26.777,34.201,25.444
					c13.896-0.737,16.284-15.442,15.994-29.919c-0.015-0.756-0.078-1.496-0.153-2.23c6.953-1.982,13.781-4.516,20.427-7.581
					c0.316,0.646,0.644,1.287,1.02,1.91c7.182,11.92,32.096,16.984,43.955,8.676c11.859-8.309,6.171-26.843-1.011-38.763
					c-0.368-0.61-0.771-1.181-1.18-1.745c5.252-5.252,10.169-10.955,14.714-17.072c0.588,0.369,1.184,0.729,1.813,1.048
					c12.149,6.169,27.412,0.505,34.092-12.65c6.679-13.154,2.245-28.82-9.904-34.988c-0.629-0.32-1.273-0.588-1.916-0.845
					c2.257-7.279,3.958-14.615,5.1-21.953C1206.788,2849.5,1207.486,2849.487,1208.197,2849.425z"/>
				<path style="fill:#FFFFFF;" d="M1191.787,2921.425c12.149,6.168,27.412,0.504,34.092-12.651
					c6.679-13.155,2.245-28.819-9.905-34.988c-0.629-0.32-1.272-0.588-1.916-0.845c2.257-7.279,3.959-14.615,5.101-21.954
					c0.696-0.002,1.395-0.013,2.104-0.076c13.861-1.236,24.862-13.973,24.572-28.45c-0.291-14.477-11.762-25.211-25.623-23.976
					c-0.725,0.065-1.436,0.179-2.144,0.306c-1.448-7.175-3.431-14.183-5.934-20.966c0.638-0.373,1.272-0.759,1.892-1.193
					c11.858-8.308,15.65-24.706,8.468-36.626c-7.182-11.919-22.617-14.846-34.476-6.538c-0.608,0.426-1.18,0.886-1.744,1.352
					c-4.684-5.178-9.821-9.976-15.379-14.356c0.391-0.64,0.774-1.29,1.12-1.971c6.679-13.155,2.244-28.82-9.905-34.988
					c-12.149-6.169-27.412-0.505-34.091,12.65c-0.346,0.681-0.644,1.374-0.931,2.066c-6.816-1.903-13.721-3.219-20.664-3.945
					c0.043-0.731,0.076-1.464,0.062-2.206c-0.29-14.477-11.762-25.211-25.624-23.975c-13.861,1.235-24.862,13.973-24.571,28.449
					c0.015,0.757,0.078,1.496,0.153,2.231c-6.953,1.982-13.781,4.516-20.428,7.581c-0.316-0.645-0.644-1.287-1.019-1.911
					c-7.181-11.92-22.617-14.847-34.476-6.538c-11.859,8.309-15.649,24.707-8.469,36.626c0.368,0.61,0.771,1.182,1.181,1.745
					c-5.251,5.252-10.17,10.955-14.715,17.073c-0.588-0.369-1.184-0.729-1.813-1.049c-12.149-6.168-27.412-0.505-34.091,12.65
					c-6.679,13.155-2.245,28.82,9.904,34.988c0.629,0.32,1.272,0.588,1.916,0.845c-2.257,7.279-3.959,14.615-5.1,21.954
					c-0.696,0.002-1.396,0.014-2.105,0.076c-13.861,1.237-24.862,13.974-24.572,28.45c0.29,14.477,11.762,25.211,25.623,23.975
					c0.724-0.064,1.436-0.179,2.143-0.304c1.448,7.174,3.432,14.182,5.935,20.965c-0.638,0.373-1.272,0.758-1.892,1.193
					c-11.858,8.308-15.649,24.706-8.468,36.625c7.182,11.92,22.617,14.847,34.476,6.539c0.608-0.426,1.18-0.886,1.744-1.353
					c4.684,5.178,9.821,9.977,15.379,14.356c-0.391,0.641-0.774,1.29-1.119,1.971c-6.68,13.155-2.245,28.819,9.904,34.988
					c12.149,6.168,27.412,0.504,34.091-12.651c0.347-0.681,0.644-1.373,0.931-2.067c6.816,1.903,13.721,3.219,20.665,3.945
					c-0.043,0.731-0.077,1.464-0.062,2.206c0.291,14.476,11.762,25.211,25.623,23.975c13.861-1.236,24.862-13.973,24.572-28.449
					c-0.015-0.757-0.078-1.496-0.153-2.231c6.953-1.982,13.782-4.516,20.428-7.581c0.316,0.645,0.644,1.287,1.019,1.91
					c7.182,11.92,22.617,14.847,34.476,6.539c11.859-8.309,15.651-24.706,8.469-36.626c-0.368-0.61-0.771-1.181-1.18-1.744
					c5.251-5.251,10.169-10.955,14.714-17.073C1190.562,2920.745,1191.158,2921.105,1191.787,2921.425z M1040.338,2923.346
					c-44.111-22.396-60.21-79.27-35.96-127.033c24.25-47.763,79.667-68.326,123.778-45.93c44.11,22.396,60.21,79.27,35.961,127.033
					C1139.865,2925.179,1084.449,2945.742,1040.338,2923.346z"/>
			</g>
			<g>
				<g>
					<path style="fill:#D8DEE8;" d="M1770.345,2763.138c26.169,13.286,59.046,1.087,73.431-27.249
						c14.386-28.335,4.835-62.076-21.334-75.363c-1.355-0.689-2.739-1.267-4.126-1.821c4.862-15.678,8.527-31.48,10.986-47.288
						c1.499-0.004,3.005-0.03,4.534-0.166c29.855-2.662,53.551-30.096,52.927-61.279c-0.625-31.183-25.335-54.304-55.191-51.643
						c-1.561,0.14-3.094,0.386-4.618,0.657c-3.118-15.452-7.392-30.548-12.782-45.158c1.373-0.804,2.739-1.634,4.074-2.569
						c25.543-17.895,33.71-53.216,18.241-78.889c-15.47-25.674-48.718-31.979-74.26-14.084c-1.309,0.917-2.54,1.908-3.757,2.913
						c-10.089-11.153-21.154-21.489-33.126-30.922c0.841-1.38,1.665-2.778,2.411-4.246c14.387-28.335,33.186-59.287,6.812-72.162
						c-61.01-29.783-87.19-4.288-101.578,24.048c-0.745,1.468-1.387,2.958-2.005,4.451c-14.681-4.098-29.554-6.932-44.512-8.497
						c0.094-1.575,0.167-3.153,0.135-4.752c-0.626-31.181,8.627-48.056-21.342-48.638c-65.351-1.271-87.401,27.095-86.776,58.276
						c0.033,1.63,0.17,3.223,0.33,4.806c-14.976,4.269-29.684,9.727-44,16.328c-0.681-1.391-1.387-2.774-2.195-4.116
						c-15.469-25.674-48.716-31.979-74.261-14.083c-25.544,17.896-33.709,53.216-18.24,78.889c0.792,1.316,1.661,2.545,2.542,3.759
						c-11.312,11.313-21.905,23.597-31.693,36.775c-1.266-0.795-2.55-1.571-3.906-2.259c-26.169-13.286-59.045-1.087-73.431,27.248
						c-14.387,28.335-4.835,62.077,21.333,75.362c1.355,0.689,2.74,1.267,4.128,1.821c-4.861,15.679-8.528,31.48-10.986,47.288
						c-1.5,0.004-3.005,0.029-4.532,0.164c-29.858,2.663-53.553,30.097-52.928,61.28c0.626,31.183,25.336,54.303,55.192,51.642
						c1.559-0.139,3.093-0.385,4.616-0.656c3.118,15.453,7.392,30.548,12.782,45.159c-1.373,0.803-2.739,1.634-4.074,2.569
						c-25.543,17.895-33.709,53.216-18.24,78.89c15.469,25.674,66.683,37.602,92.225,19.707c1.309-0.918-15.426-7.53-14.208-8.536
						c10.089,11.153,21.154,21.489,33.125,30.922c-0.84,1.38-1.665,2.778-2.41,4.246c-14.387,28.335-4.835,62.076,21.333,75.363
						c26.169,13.286,59.045,1.087,73.432-27.248c0.745-1.468,1.387-2.958,2.005-4.452c14.679,4.099,29.553,6.933,44.511,8.497
						c-0.093,1.576-0.166,3.154-0.135,4.752c0.625,31.182,25.336,54.303,55.191,51.642c29.856-2.662,53.552-30.097,52.927-61.279
						c-0.033-1.629-0.169-3.223-0.331-4.806c14.977-4.269,29.685-9.727,44-16.328c0.681,1.391,1.387,2.773,2.195,4.115
						c15.469,25.674,48.716,31.98,74.26,14.084c25.544-17.897,33.71-53.216,18.241-78.891c-0.793-1.314-1.661-2.544-2.542-3.758
						c11.312-11.313,21.905-23.597,31.694-36.774C1767.706,2761.674,1768.99,2762.45,1770.345,2763.138z M1444.128,2767.277
						c-95.013-48.24-129.692-170.745-77.458-273.625c52.234-102.88,171.601-147.173,266.613-98.933
						c95.012,48.24,129.691,170.745,77.459,273.625C1658.507,2771.224,1539.14,2815.517,1444.128,2767.277z"/>
					<path style="fill:#D8DEE8;" d="M1833.836,2611.253c29.855-2.662,53.551-30.097,52.927-61.28
						c-0.625-31.183-25.335-54.304-55.191-51.642c-1.561,0.139-3.094,0.386-4.618,0.656c-3.117-15.454-7.392-30.548-12.782-45.158
						c1.373-0.802,2.739-1.634,4.074-2.57c25.543-17.894,57.145-61.135,39.124-85.086c-34.203-45.458-69.6-25.782-95.143-7.886
						c-1.309,0.917-2.54,1.907-3.756,2.912c-10.09-11.153-21.155-21.488-33.127-30.922c0.841-1.38,1.665-2.777,2.411-4.245
						c7.83-15.422,8.521-32.424,3.349-46.879c-24.672,43.423-49.011,87.03-72.914,130.873c75.798,55.543,99.929,165,52.55,258.318
						c-40.149,79.078-119.958,123.481-197.886,117.917c-3.476,9.015-6.889,18.079-10.612,27.008
						c-10.101,24.229-21.577,47.959-33.068,71.657c7.227,1.363,14.485,2.435,21.763,3.197c-0.093,1.576-0.166,3.155-0.135,4.753
						c0.625,31.182,19.557,57.676,73.667,54.805c29.932-1.587,35.075-33.26,34.451-64.443c-0.033-1.629-0.169-3.223-0.331-4.805
						c14.976-4.269,29.685-9.728,44-16.328c0.681,1.391,1.387,2.773,2.196,4.114c15.47,25.675,69.134,36.583,94.678,18.687
						c25.544-17.897,13.292-57.819-2.177-83.493c-0.793-1.315-1.661-2.545-2.542-3.759c11.312-11.312,21.905-23.597,31.694-36.773
						c1.266,0.795,2.55,1.571,3.906,2.257c26.169,13.288,59.046,1.087,73.432-27.248c14.385-28.334,4.834-62.077-21.334-75.363
						c-1.355-0.688-2.74-1.267-4.127-1.82c4.862-15.678,8.527-31.481,10.986-47.287
						C1830.801,2611.414,1832.307,2611.389,1833.836,2611.253z"/>
					
						<linearGradient id="SVGID_00000113342082227708020690000016367424257966858134_" gradientUnits="userSpaceOnUse" x1="1432.2528" y1="2400.49" x2="1862.0469" y2="2987.1016">
						<stop  offset="0.0036" style="stop-color:#E38DDD"/>
						<stop  offset="1" style="stop-color:#9571F6"/>
					</linearGradient>
					<path style="fill:url(#SVGID_00000113342082227708020690000016367424257966858134_);" d="M1798.491,2766.339
						c26.169,13.286,59.045,1.087,73.432-27.249c14.386-28.335,4.834-62.076-21.334-75.362c-1.355-0.688-2.739-1.267-4.127-1.82
						c4.861-15.679,8.527-31.48,10.986-47.289c1.5-0.004,3.005-0.029,4.534-0.165c29.856-2.662,53.552-30.096,52.927-61.279
						c-0.626-31.183-25.336-54.304-55.192-51.643c-1.561,0.14-3.093,0.386-4.617,0.657c-3.119-15.453-7.392-30.548-12.782-45.158
						c1.373-0.804,2.739-1.634,4.075-2.57c25.543-17.895,33.71-53.215,18.241-78.889c-15.469-25.674-48.717-31.979-74.26-14.084
						c-1.309,0.917-2.541,1.908-3.757,2.913c-10.089-11.153-21.154-21.488-33.126-30.921c0.841-1.38,1.665-2.778,2.412-4.246
						c14.386-28.335,4.834-62.076-21.334-75.363c-26.169-13.287-59.045-1.087-73.431,27.249c-0.745,1.468-1.388,2.958-2.006,4.452
						c-14.68-4.099-29.554-6.933-44.51-8.497c0.093-1.575,0.165-3.153,0.133-4.752c-0.626-31.181-25.335-54.302-55.191-51.641
						c-29.856,2.661-53.552,30.097-52.927,61.278c0.033,1.63,0.17,3.223,0.33,4.805c-14.976,4.269-29.684,9.728-44,16.329
						c-0.68-1.391-1.386-2.773-2.195-4.116c-15.469-25.673-48.716-31.979-74.26-14.082c-25.544,17.897-33.709,53.216-18.24,78.889
						c0.793,1.315,1.661,2.545,2.542,3.759c-11.311,11.313-21.906,23.597-31.695,36.775c-1.265-0.795-2.549-1.571-3.905-2.259
						c-26.169-13.286-59.045-1.087-73.431,27.249c-14.387,28.335-4.835,62.076,21.333,75.363c1.356,0.689,2.74,1.267,4.128,1.82
						c-4.862,15.679-8.528,31.48-10.986,47.288c-1.499,0.005-3.005,0.03-4.533,0.165c-29.856,2.663-53.553,30.097-52.927,61.281
						c0.625,31.182,25.335,54.302,55.191,51.641c1.56-0.139,3.093-0.384,4.616-0.656c3.119,15.453,7.392,30.549,12.782,45.159
						c-1.373,0.803-2.74,1.633-4.074,2.569c-25.544,17.894-33.71,53.215-18.241,78.889c15.469,25.674,48.717,31.979,74.259,14.084
						c1.309-0.918,2.541-1.908,3.758-2.913c10.09,11.153,21.154,21.489,33.125,30.922c-0.84,1.38-1.665,2.778-2.41,4.246
						c-14.387,28.335-4.835,62.076,21.333,75.363c26.169,13.286,59.045,1.087,73.432-27.249c0.745-1.467,1.387-2.958,2.005-4.452
						c14.68,4.099,29.555,6.933,44.512,8.497c-0.093,1.576-0.166,3.154-0.135,4.752c0.626,31.181,25.336,54.303,55.192,51.642
						c29.856-2.662,53.552-30.098,52.926-61.279c-0.032-1.63-0.168-3.223-0.33-4.806c14.976-4.269,29.685-9.727,44-16.328
						c0.68,1.39,1.388,2.773,2.195,4.114c15.469,25.674,48.717,31.98,74.26,14.084c25.544-17.896,33.711-53.215,18.242-78.891
						c-0.793-1.314-1.661-2.544-2.543-3.758c11.311-11.312,21.905-23.596,31.694-36.774
						C1795.851,2764.875,1797.135,2765.65,1798.491,2766.339z M1472.274,2770.478c-95.012-48.24-129.692-170.745-77.458-273.625
						c52.235-102.879,171.6-147.173,266.613-98.932c95.012,48.24,129.691,170.745,77.458,273.625
						C1686.652,2774.425,1567.287,2818.718,1472.274,2770.478z"/>
				</g>
			</g>
		</g>
	</g>
</g>
</svg>
